<?xml version="1.0" standalone="no"?><!DOCTYPE svg PUBLIC "-//W3C//DTD SVG 1.1//EN" "http://www.w3.org/Graphics/SVG/1.1/DTD/svg11.dtd">
<svg width="193.6" height="335.4" version="1.1" xmlns="http://www.w3.org/2000/svg">
<text xml:space="preserve" x="49.6" y="128.4" font-family="Calibri" font-size="8" text-anchor="end">EHF</text>
<text xml:space="preserve" x="66.6" y="111.4" font-family="Calibri" font-size="8" transform="rotate(270 66.6 111.4)">Cluster100</text>
<polygon points="53.6,115.4 73.6,115.4 73.6,135.4 53.6,135.4" fill="rgb(186,255,186)"/><text xml:space="preserve" x="63.6" y="128.233" font-family="Calibri" font-size="7.5" fill="rgb(0,0,0)" text-anchor="middle">1.34</text>
<polygon points="53.6,115.4 73.6,115.4 73.6,135.4 53.6,135.4" fill="none" stroke="black" stroke-width="1"/>
<text xml:space="preserve" x="96.8" y="168.4" font-family="Calibri" font-size="8" text-anchor="middle">CisBPMotifs</text>
<polygon points="36.8,175.4 56.8,175.4 56.8,195.4 36.8,195.4" fill="rgb(255,255,255)"/><polygon points="36.8,175.4 56.8,175.4 56.8,195.4 36.8,195.4" fill="none" stroke="black" stroke-width="1"/><text xml:space="preserve" x="46.8" y="188.233" font-family="Calibri" font-size="7.5" fill="rgb(0,0,0)" text-anchor="middle">0.0</text>
<polygon points="56.8,175.4 76.8,175.4 76.8,195.4 56.8,195.4" fill="rgb(204,255,204)"/><polygon points="56.8,175.4 76.8,175.4 76.8,195.4 56.8,195.4" fill="none" stroke="black" stroke-width="1"/><text xml:space="preserve" x="66.8" y="188.233" font-family="Calibri" font-size="7.5" fill="rgb(0,0,0)" text-anchor="middle">1.0</text>
<polygon points="76.8,175.4 96.8,175.4 96.8,195.4 76.8,195.4" fill="rgb(153,255,153)"/><polygon points="76.8,175.4 96.8,175.4 96.8,195.4 76.8,195.4" fill="none" stroke="black" stroke-width="1"/><text xml:space="preserve" x="86.8" y="188.233" font-family="Calibri" font-size="7.5" fill="rgb(0,0,0)" text-anchor="middle">2.0</text>
<polygon points="96.8,175.4 116.8,175.4 116.8,195.4 96.8,195.4" fill="rgb(102,255,102)"/><polygon points="96.8,175.4 116.8,175.4 116.8,195.4 96.8,195.4" fill="none" stroke="black" stroke-width="1"/><text xml:space="preserve" x="106.8" y="188.233" font-family="Calibri" font-size="7.5" fill="rgb(0,0,0)" text-anchor="middle">3.0</text>
<polygon points="116.8,175.4 136.8,175.4 136.8,195.4 116.8,195.4" fill="rgb(50,255,50)"/><polygon points="116.8,175.4 136.8,175.4 136.8,195.4 116.8,195.4" fill="none" stroke="black" stroke-width="1"/><text xml:space="preserve" x="126.8" y="188.233" font-family="Calibri" font-size="7.5" fill="rgb(0,0,0)" text-anchor="middle">4.0</text>
<polygon points="136.8,175.4 156.8,175.4 156.8,195.4 136.8,195.4" fill="rgb(0,255,0)"/><polygon points="136.8,175.4 156.8,175.4 156.8,195.4 136.8,195.4" fill="none" stroke="black" stroke-width="1"/><text xml:space="preserve" x="146.8" y="188.233" font-family="Calibri" font-size="7.5" fill="rgb(0,0,0)" text-anchor="middle">5.0</text>
<text xml:space="preserve" x="96.8" y="228.4" font-family="Calibri" font-size="8" text-anchor="middle">GO</text>
<polygon points="36.8,235.4 56.8,235.4 56.8,255.4 36.8,255.4" fill="rgb(255,255,255)"/><polygon points="36.8,235.4 56.8,235.4 56.8,255.4 36.8,255.4" fill="none" stroke="black" stroke-width="1"/><text xml:space="preserve" x="46.8" y="248.233" font-family="Calibri" font-size="7.5" fill="rgb(0,0,0)" text-anchor="middle">0.0</text>
<polygon points="56.8,235.4 76.8,235.4 76.8,255.4 56.8,255.4" fill="rgb(204,204,255)"/><polygon points="56.8,235.4 76.8,235.4 76.8,255.4 56.8,255.4" fill="none" stroke="black" stroke-width="1"/><text xml:space="preserve" x="66.8" y="248.233" font-family="Calibri" font-size="7.5" fill="rgb(0,0,0)" text-anchor="middle">1.0</text>
<polygon points="76.8,235.4 96.8,235.4 96.8,255.4 76.8,255.4" fill="rgb(153,153,255)"/><polygon points="76.8,235.4 96.8,235.4 96.8,255.4 76.8,255.4" fill="none" stroke="black" stroke-width="1"/><text xml:space="preserve" x="86.8" y="248.233" font-family="Calibri" font-size="7.5" fill="rgb(0,0,0)" text-anchor="middle">2.0</text>
<polygon points="96.8,235.4 116.8,235.4 116.8,255.4 96.8,255.4" fill="rgb(102,102,255)"/><polygon points="96.8,235.4 116.8,235.4 116.8,255.4 96.8,255.4" fill="none" stroke="black" stroke-width="1"/><text xml:space="preserve" x="106.8" y="248.233" font-family="Calibri" font-size="7.5" fill="rgb(255,255,255)" text-anchor="middle">3.0</text>
<polygon points="116.8,235.4 136.8,235.4 136.8,255.4 116.8,255.4" fill="rgb(50,50,255)"/><polygon points="116.8,235.4 136.8,235.4 136.8,255.4 116.8,255.4" fill="none" stroke="black" stroke-width="1"/><text xml:space="preserve" x="126.8" y="248.233" font-family="Calibri" font-size="7.5" fill="rgb(255,255,255)" text-anchor="middle">4.0</text>
<polygon points="136.8,235.4 156.8,235.4 156.8,255.4 136.8,255.4" fill="rgb(0,0,255)"/><polygon points="136.8,235.4 156.8,235.4 156.8,255.4 136.8,255.4" fill="none" stroke="black" stroke-width="1"/><text xml:space="preserve" x="146.8" y="248.233" font-family="Calibri" font-size="7.5" fill="rgb(255,255,255)" text-anchor="middle">5.0</text>
<text xml:space="preserve" x="96.8" y="288.4" font-family="Calibri" font-size="8" text-anchor="middle">KEGG</text>
<polygon points="36.8,295.4 56.8,295.4 56.8,315.4 36.8,315.4" fill="rgb(255,255,255)"/><polygon points="36.8,295.4 56.8,295.4 56.8,315.4 36.8,315.4" fill="none" stroke="black" stroke-width="1"/><text xml:space="preserve" x="46.8" y="308.233" font-family="Calibri" font-size="7.5" fill="rgb(0,0,0)" text-anchor="middle">0.0</text>
<polygon points="56.8,295.4 76.8,295.4 76.8,315.4 56.8,315.4" fill="rgb(204,204,204)"/><polygon points="56.8,295.4 76.8,295.4 76.8,315.4 56.8,315.4" fill="none" stroke="black" stroke-width="1"/><text xml:space="preserve" x="66.8" y="308.233" font-family="Calibri" font-size="7.5" fill="rgb(0,0,0)" text-anchor="middle">1.0</text>
<polygon points="76.8,295.4 96.8,295.4 96.8,315.4 76.8,315.4" fill="rgb(153,153,153)"/><polygon points="76.8,295.4 96.8,295.4 96.8,315.4 76.8,315.4" fill="none" stroke="black" stroke-width="1"/><text xml:space="preserve" x="86.8" y="308.233" font-family="Calibri" font-size="7.5" fill="rgb(0,0,0)" text-anchor="middle">2.0</text>
<polygon points="96.8,295.4 116.8,295.4 116.8,315.4 96.8,315.4" fill="rgb(102,102,102)"/><polygon points="96.8,295.4 116.8,295.4 116.8,315.4 96.8,315.4" fill="none" stroke="black" stroke-width="1"/><text xml:space="preserve" x="106.8" y="308.233" font-family="Calibri" font-size="7.5" fill="rgb(255,255,255)" text-anchor="middle">3.0</text>
<polygon points="116.8,295.4 136.8,295.4 136.8,315.4 116.8,315.4" fill="rgb(50,50,50)"/><polygon points="116.8,295.4 136.8,295.4 136.8,315.4 116.8,315.4" fill="none" stroke="black" stroke-width="1"/><text xml:space="preserve" x="126.8" y="308.233" font-family="Calibri" font-size="7.5" fill="rgb(255,255,255)" text-anchor="middle">4.0</text>
<polygon points="136.8,295.4 156.8,295.4 156.8,315.4 136.8,315.4" fill="rgb(0,0,0)"/><polygon points="136.8,295.4 156.8,295.4 156.8,315.4 136.8,315.4" fill="none" stroke="black" stroke-width="1"/><text xml:space="preserve" x="146.8" y="308.233" font-family="Calibri" font-size="7.5" fill="rgb(255,255,255)" text-anchor="middle">5.0</text>
</svg>
