<?xml version="1.0" standalone="no"?><!DOCTYPE svg PUBLIC "-//W3C//DTD SVG 1.1//EN" "http://www.w3.org/Graphics/SVG/1.1/DTD/svg11.dtd">
<svg width="544.2" height="511.6" version="1.1" xmlns="http://www.w3.org/2000/svg">
<text xml:space="preserve" x="188.2" y="275.6" font-family="Calibri" font-size="8" text-anchor="end">ENSG00000108278</text>
<text xml:space="preserve" x="188.2" y="281.6" font-family="Calibri" font-size="8" text-anchor="end">ENSG00000166526</text>
<text xml:space="preserve" x="188.2" y="287.6" font-family="Calibri" font-size="8" text-anchor="end">ENSG00000168172</text>
<text xml:space="preserve" x="188.2" y="293.6" font-family="Calibri" font-size="8" text-anchor="end">ENSG00000136213</text>
<text xml:space="preserve" x="188.2" y="299.6" font-family="Calibri" font-size="8" text-anchor="end">ENSG00000111271</text>
<text xml:space="preserve" x="188.2" y="305.6" font-family="Calibri" font-size="8" text-anchor="end">ENSG00000235162</text>
<text xml:space="preserve" x="188.2" y="311.6" font-family="Calibri" font-size="8" text-anchor="end">ENSG00000214021</text>
<text xml:space="preserve" x="188.2" y="317.6" font-family="Calibri" font-size="8" text-anchor="end">ENSG00000197959</text>
<text xml:space="preserve" x="188.2" y="323.6" font-family="Calibri" font-size="8" text-anchor="end">ENSG00000186638</text>
<text xml:space="preserve" x="188.2" y="329.6" font-family="Calibri" font-size="8" text-anchor="end">ENSG00000186314</text>
<text xml:space="preserve" x="188.2" y="335.6" font-family="Calibri" font-size="8" text-anchor="end">ENSG00000185344</text>
<text xml:space="preserve" x="188.2" y="341.6" font-family="Calibri" font-size="8" text-anchor="end">ENSG00000184988</text>
<text xml:space="preserve" x="188.2" y="347.6" font-family="Calibri" font-size="8" text-anchor="end">ENSG00000179361</text>
<text xml:space="preserve" x="188.2" y="353.6" font-family="Calibri" font-size="8" text-anchor="end">ENSG00000176390</text>
<text xml:space="preserve" x="188.2" y="359.6" font-family="Calibri" font-size="8" text-anchor="end">ENSG00000170915</text>
<text xml:space="preserve" x="188.2" y="365.6" font-family="Calibri" font-size="8" text-anchor="end">ENSG00000165209</text>
<text xml:space="preserve" x="188.2" y="371.6" font-family="Calibri" font-size="8" text-anchor="end">ENSG00000163812</text>
<text xml:space="preserve" x="199.2" y="265.6" font-family="Calibri" font-size="8" transform="rotate(270 199.2 265.6)">homo_sapiens</text>
<text xml:space="preserve" x="207.2" y="265.6" font-family="Calibri" font-size="8" transform="rotate(270 207.2 265.6)">rattus_norvegicus</text>
<text xml:space="preserve" x="215.2" y="265.6" font-family="Calibri" font-size="8" transform="rotate(270 215.2 265.6)">Anc4</text>
<text xml:space="preserve" x="223.2" y="265.6" font-family="Calibri" font-size="8" transform="rotate(270 223.2 265.6)">bos_taurus</text>
<text xml:space="preserve" x="231.2" y="265.6" font-family="Calibri" font-size="8" transform="rotate(270 231.2 265.6)">Anc3</text>
<text xml:space="preserve" x="248.2" y="265.6" font-family="Calibri" font-size="8" transform="rotate(270 248.2 265.6)">homo_sapiens_Exp1</text>
<text xml:space="preserve" x="254.2" y="265.6" font-family="Calibri" font-size="8" transform="rotate(270 254.2 265.6)">homo_sapiens_Exp2</text>
<text xml:space="preserve" x="260.2" y="265.6" font-family="Calibri" font-size="8" transform="rotate(270 260.2 265.6)">homo_sapiens_Exp3</text>
<text xml:space="preserve" x="266.2" y="265.6" font-family="Calibri" font-size="8" transform="rotate(270 266.2 265.6)">homo_sapiens_Exp4</text>
<text xml:space="preserve" x="272.2" y="265.6" font-family="Calibri" font-size="8" transform="rotate(270 272.2 265.6)">homo_sapiens_Exp5</text>
<text xml:space="preserve" x="278.2" y="265.6" font-family="Calibri" font-size="8" transform="rotate(270 278.2 265.6)">homo_sapiens_Exp6</text>
<text xml:space="preserve" x="284.2" y="265.6" font-family="Calibri" font-size="8" transform="rotate(270 284.2 265.6)">homo_sapiens_Exp7</text>
<text xml:space="preserve" x="290.2" y="265.6" font-family="Calibri" font-size="8" transform="rotate(270 290.2 265.6)">homo_sapiens_Exp8</text>
<text xml:space="preserve" x="296.2" y="265.6" font-family="Calibri" font-size="8" transform="rotate(270 296.2 265.6)">homo_sapiens_Exp9</text>
<text xml:space="preserve" x="302.2" y="265.6" font-family="Calibri" font-size="8" transform="rotate(270 302.2 265.6)">homo_sapiens_Exp10</text>
<text xml:space="preserve" x="308.2" y="265.6" font-family="Calibri" font-size="8" transform="rotate(270 308.2 265.6)">homo_sapiens_Exp11</text>
<text xml:space="preserve" x="314.2" y="265.6" font-family="Calibri" font-size="8" transform="rotate(270 314.2 265.6)">homo_sapiens_Exp12</text>
<text xml:space="preserve" x="320.2" y="265.6" font-family="Calibri" font-size="8" transform="rotate(270 320.2 265.6)">homo_sapiens_Exp13</text>
<text xml:space="preserve" x="326.2" y="265.6" font-family="Calibri" font-size="8" transform="rotate(270 326.2 265.6)">homo_sapiens_Exp14</text>
<text xml:space="preserve" x="342.2" y="265.6" font-family="Calibri" font-size="8" transform="rotate(270 342.2 265.6)">rattus_norvegicus_Exp1</text>
<text xml:space="preserve" x="348.2" y="265.6" font-family="Calibri" font-size="8" transform="rotate(270 348.2 265.6)">rattus_norvegicus_Exp2</text>
<text xml:space="preserve" x="354.2" y="265.6" font-family="Calibri" font-size="8" transform="rotate(270 354.2 265.6)">rattus_norvegicus_Exp3</text>
<text xml:space="preserve" x="360.2" y="265.6" font-family="Calibri" font-size="8" transform="rotate(270 360.2 265.6)">rattus_norvegicus_Exp4</text>
<text xml:space="preserve" x="366.2" y="265.6" font-family="Calibri" font-size="8" transform="rotate(270 366.2 265.6)">rattus_norvegicus_Exp5</text>
<text xml:space="preserve" x="372.2" y="265.6" font-family="Calibri" font-size="8" transform="rotate(270 372.2 265.6)">rattus_norvegicus_Exp6</text>
<text xml:space="preserve" x="378.2" y="265.6" font-family="Calibri" font-size="8" transform="rotate(270 378.2 265.6)">rattus_norvegicus_Exp7</text>
<text xml:space="preserve" x="384.2" y="265.6" font-family="Calibri" font-size="8" transform="rotate(270 384.2 265.6)">rattus_norvegicus_Exp8</text>
<text xml:space="preserve" x="390.2" y="265.6" font-family="Calibri" font-size="8" transform="rotate(270 390.2 265.6)">rattus_norvegicus_Exp9</text>
<text xml:space="preserve" x="396.2" y="265.6" font-family="Calibri" font-size="8" transform="rotate(270 396.2 265.6)">rattus_norvegicus_Exp10</text>
<text xml:space="preserve" x="402.2" y="265.6" font-family="Calibri" font-size="8" transform="rotate(270 402.2 265.6)">rattus_norvegicus_Exp11</text>
<text xml:space="preserve" x="408.2" y="265.6" font-family="Calibri" font-size="8" transform="rotate(270 408.2 265.6)">rattus_norvegicus_Exp12</text>
<text xml:space="preserve" x="414.2" y="265.6" font-family="Calibri" font-size="8" transform="rotate(270 414.2 265.6)">rattus_norvegicus_Exp13</text>
<text xml:space="preserve" x="420.2" y="265.6" font-family="Calibri" font-size="8" transform="rotate(270 420.2 265.6)">rattus_norvegicus_Exp14</text>
<text xml:space="preserve" x="436.2" y="265.6" font-family="Calibri" font-size="8" transform="rotate(270 436.2 265.6)">bos_taurus_Exp1</text>
<text xml:space="preserve" x="442.2" y="265.6" font-family="Calibri" font-size="8" transform="rotate(270 442.2 265.6)">bos_taurus_Exp2</text>
<text xml:space="preserve" x="448.2" y="265.6" font-family="Calibri" font-size="8" transform="rotate(270 448.2 265.6)">bos_taurus_Exp3</text>
<text xml:space="preserve" x="454.2" y="265.6" font-family="Calibri" font-size="8" transform="rotate(270 454.2 265.6)">bos_taurus_Exp4</text>
<text xml:space="preserve" x="460.2" y="265.6" font-family="Calibri" font-size="8" transform="rotate(270 460.2 265.6)">bos_taurus_Exp5</text>
<text xml:space="preserve" x="466.2" y="265.6" font-family="Calibri" font-size="8" transform="rotate(270 466.2 265.6)">bos_taurus_Exp6</text>
<text xml:space="preserve" x="472.2" y="265.6" font-family="Calibri" font-size="8" transform="rotate(270 472.2 265.6)">bos_taurus_Exp7</text>
<text xml:space="preserve" x="478.2" y="265.6" font-family="Calibri" font-size="8" transform="rotate(270 478.2 265.6)">bos_taurus_Exp8</text>
<text xml:space="preserve" x="484.2" y="265.6" font-family="Calibri" font-size="8" transform="rotate(270 484.2 265.6)">bos_taurus_Exp9</text>
<text xml:space="preserve" x="490.2" y="265.6" font-family="Calibri" font-size="8" transform="rotate(270 490.2 265.6)">bos_taurus_Exp10</text>
<text xml:space="preserve" x="496.2" y="265.6" font-family="Calibri" font-size="8" transform="rotate(270 496.2 265.6)">bos_taurus_Exp11</text>
<text xml:space="preserve" x="502.2" y="265.6" font-family="Calibri" font-size="8" transform="rotate(270 502.2 265.6)">bos_taurus_Exp12</text>
<text xml:space="preserve" x="508.2" y="265.6" font-family="Calibri" font-size="8" transform="rotate(270 508.2 265.6)">bos_taurus_Exp13</text>
<text xml:space="preserve" x="514.2" y="265.6" font-family="Calibri" font-size="8" transform="rotate(270 514.2 265.6)">bos_taurus_Exp14</text>
<polygon points="192.2,269.6 200.2,269.6 200.2,275.6 192.2,275.6" fill="rgb(127,230,0)"/><text xml:space="preserve" x="196.2" y="275.433" font-family="Calibri" font-size="7.5" fill="rgb(0,0,0)" text-anchor="middle">2</text>
<polygon points="200.2,269.6 208.2,269.6 208.2,275.6 200.2,275.6" fill="rgb(205,0,0)"/><text xml:space="preserve" x="204.2" y="275.433" font-family="Calibri" font-size="7.5" fill="rgb(255,255,255)" text-anchor="middle">5</text>
<polygon points="208.2,269.6 216.2,269.6 216.2,275.6 208.2,275.6" fill="rgb(127,230,0)"/><text xml:space="preserve" x="212.2" y="275.433" font-family="Calibri" font-size="7.5" fill="rgb(0,0,0)" text-anchor="middle">2</text>
<polygon points="216.2,269.6 224.2,269.6 224.2,275.6 216.2,275.6" fill="rgb(255,255,0)"/><text xml:space="preserve" x="220.2" y="275.433" font-family="Calibri" font-size="7.5" fill="rgb(0,0,0)" text-anchor="middle">3</text>
<polygon points="224.2,269.6 232.2,269.6 232.2,275.6 224.2,275.6" fill="rgb(255,255,0)"/><text xml:space="preserve" x="228.2" y="275.433" font-family="Calibri" font-size="7.5" fill="rgb(0,0,0)" text-anchor="middle">3</text>
<polygon points="242.2,269.6 248.2,269.6 248.2,275.6 242.2,275.6" fill="rgb(0,21,0)"/>
<polygon points="248.2,269.6 254.2,269.6 254.2,275.6 248.2,275.6" fill="rgb(0,19,0)"/>
<polygon points="254.2,269.6 260.2,269.6 260.2,275.6 254.2,275.6" fill="rgb(0,58,0)"/>
<polygon points="260.2,269.6 266.2,269.6 266.2,275.6 260.2,275.6" fill="rgb(200,0,0)"/>
<polygon points="266.2,269.6 272.2,269.6 272.2,275.6 266.2,275.6" fill="rgb(0,38,0)"/>
<polygon points="272.2,269.6 278.2,269.6 278.2,275.6 272.2,275.6" fill="rgb(0,20,0)"/>
<polygon points="278.2,269.6 284.2,269.6 284.2,275.6 278.2,275.6" fill="rgb(0,42,0)"/>
<polygon points="284.2,269.6 290.2,269.6 290.2,275.6 284.2,275.6" fill="rgb(0,191,0)"/>
<polygon points="290.2,269.6 296.2,269.6 296.2,275.6 290.2,275.6" fill="rgb(0,55,0)"/>
<polygon points="296.2,269.6 302.2,269.6 302.2,275.6 296.2,275.6" fill="rgb(71,0,0)"/>
<polygon points="302.2,269.6 308.2,269.6 308.2,275.6 302.2,275.6" fill="rgb(190,0,0)"/>
<polygon points="308.2,269.6 314.2,269.6 314.2,275.6 308.2,275.6" fill="rgb(143,0,0)"/>
<polygon points="314.2,269.6 320.2,269.6 320.2,275.6 314.2,275.6" fill="rgb(2,0,0)"/>
<polygon points="320.2,269.6 326.2,269.6 326.2,275.6 320.2,275.6" fill="rgb(0,161,0)"/>
<polygon points="336.2,269.6 342.2,269.6 342.2,275.6 336.2,275.6" fill="rgb(0,91,0)"/>
<polygon points="342.2,269.6 348.2,269.6 348.2,275.6 342.2,275.6" fill="rgb(15,0,0)"/>
<polygon points="348.2,269.6 354.2,269.6 354.2,275.6 348.2,275.6" fill="rgb(57,0,0)"/>
<polygon points="354.2,269.6 360.2,269.6 360.2,275.6 354.2,275.6" fill="rgb(100,0,0)"/>
<polygon points="360.2,269.6 366.2,269.6 366.2,275.6 360.2,275.6" fill="rgb(0,125,0)"/>
<polygon points="366.2,269.6 372.2,269.6 372.2,275.6 366.2,275.6" fill="rgb(19,0,0)"/>
<polygon points="372.2,269.6 378.2,269.6 378.2,275.6 372.2,275.6" fill="rgb(22,0,0)"/>
<polygon points="378.2,269.6 384.2,269.6 384.2,275.6 378.2,275.6" fill="rgb(0,16,0)"/>
<polygon points="384.2,269.6 390.2,269.6 390.2,275.6 384.2,275.6" fill="rgb(0,17,0)"/>
<polygon points="390.2,269.6 396.2,269.6 396.2,275.6 390.2,275.6" fill="rgb(39,0,0)"/>
<polygon points="396.2,269.6 402.2,269.6 402.2,275.6 396.2,275.6" fill="rgb(85,0,0)"/>
<polygon points="402.2,269.6 408.2,269.6 408.2,275.6 402.2,275.6" fill="rgb(0,9,0)"/>
<polygon points="408.2,269.6 414.2,269.6 414.2,275.6 408.2,275.6" fill="rgb(0,73,0)"/>
<polygon points="414.2,269.6 420.2,269.6 420.2,275.6 414.2,275.6" fill="rgb(0,7,0)"/>
<polygon points="430.2,269.6 436.2,269.6 436.2,275.6 430.2,275.6" fill="rgb(0,62,0)"/>
<polygon points="436.2,269.6 442.2,269.6 442.2,275.6 436.2,275.6" fill="rgb(0,1,0)"/>
<polygon points="442.2,269.6 448.2,269.6 448.2,275.6 442.2,275.6" fill="rgb(17,0,0)"/>
<polygon points="448.2,269.6 454.2,269.6 454.2,275.6 448.2,275.6" fill="rgb(94,0,0)"/>
<polygon points="454.2,269.6 460.2,269.6 460.2,275.6 454.2,275.6" fill="rgb(62,0,0)"/>
<polygon points="460.2,269.6 466.2,269.6 466.2,275.6 460.2,275.6" fill="rgb(0,68,0)"/>
<polygon points="466.2,269.6 472.2,269.6 472.2,275.6 466.2,275.6" fill="rgb(0,41,0)"/>
<polygon points="472.2,269.6 478.2,269.6 478.2,275.6 472.2,275.6" fill="rgb(0,186,0)"/>
<polygon points="478.2,269.6 484.2,269.6 484.2,275.6 478.2,275.6" fill="rgb(0,255,0)"/>
<polygon points="484.2,269.6 490.2,269.6 490.2,275.6 484.2,275.6" fill="rgb(0,72,0)"/>
<polygon points="490.2,269.6 496.2,269.6 496.2,275.6 490.2,275.6" fill="rgb(219,0,0)"/>
<polygon points="496.2,269.6 502.2,269.6 502.2,275.6 496.2,275.6" fill="rgb(255,0,0)"/>
<polygon points="502.2,269.6 508.2,269.6 508.2,275.6 502.2,275.6" fill="rgb(32,0,0)"/>
<polygon points="508.2,269.6 514.2,269.6 514.2,275.6 508.2,275.6" fill="rgb(0,50,0)"/>
<polygon points="192.2,275.6 200.2,275.6 200.2,281.6 192.2,281.6" fill="rgb(127,230,0)"/><text xml:space="preserve" x="196.2" y="281.433" font-family="Calibri" font-size="7.5" fill="rgb(0,0,0)" text-anchor="middle">2</text>
<polygon points="200.2,275.6 208.2,275.6 208.2,281.6 200.2,281.6" fill="rgb(205,0,0)"/><text xml:space="preserve" x="204.2" y="281.433" font-family="Calibri" font-size="7.5" fill="rgb(255,255,255)" text-anchor="middle">5</text>
<polygon points="208.2,275.6 216.2,275.6 216.2,281.6 208.2,281.6" fill="rgb(127,230,0)"/><text xml:space="preserve" x="212.2" y="281.433" font-family="Calibri" font-size="7.5" fill="rgb(0,0,0)" text-anchor="middle">2</text>
<polygon points="216.2,275.6 224.2,275.6 224.2,281.6 216.2,281.6" fill="rgb(255,255,0)"/><text xml:space="preserve" x="220.2" y="281.433" font-family="Calibri" font-size="7.5" fill="rgb(0,0,0)" text-anchor="middle">3</text>
<polygon points="224.2,275.6 232.2,275.6 232.2,281.6 224.2,281.6" fill="rgb(255,255,0)"/><text xml:space="preserve" x="228.2" y="281.433" font-family="Calibri" font-size="7.5" fill="rgb(0,0,0)" text-anchor="middle">3</text>
<polygon points="242.2,275.6 248.2,275.6 248.2,281.6 242.2,281.6" fill="rgb(0,126,0)"/>
<polygon points="248.2,275.6 254.2,275.6 254.2,281.6 248.2,281.6" fill="rgb(43,0,0)"/>
<polygon points="254.2,275.6 260.2,275.6 260.2,281.6 254.2,281.6" fill="rgb(80,0,0)"/>
<polygon points="260.2,275.6 266.2,275.6 266.2,281.6 260.2,281.6" fill="rgb(178,0,0)"/>
<polygon points="266.2,275.6 272.2,275.6 272.2,281.6 266.2,281.6" fill="rgb(0,66,0)"/>
<polygon points="272.2,275.6 278.2,275.6 278.2,281.6 272.2,281.6" fill="rgb(0,59,0)"/>
<polygon points="278.2,275.6 284.2,275.6 284.2,281.6 278.2,281.6" fill="rgb(0,49,0)"/>
<polygon points="284.2,275.6 290.2,275.6 290.2,281.6 284.2,281.6" fill="rgb(0,102,0)"/>
<polygon points="290.2,275.6 296.2,275.6 296.2,281.6 290.2,281.6" fill="rgb(0,6,0)"/>
<polygon points="296.2,275.6 302.2,275.6 302.2,281.6 296.2,281.6" fill="rgb(98,0,0)"/>
<polygon points="302.2,275.6 308.2,275.6 308.2,281.6 302.2,281.6" fill="rgb(191,0,0)"/>
<polygon points="308.2,275.6 314.2,275.6 314.2,281.6 308.2,281.6" fill="rgb(108,0,0)"/>
<polygon points="314.2,275.6 320.2,275.6 320.2,281.6 314.2,281.6" fill="rgb(0,155,0)"/>
<polygon points="320.2,275.6 326.2,275.6 326.2,281.6 320.2,281.6" fill="rgb(0,134,0)"/>
<polygon points="336.2,275.6 342.2,275.6 342.2,281.6 336.2,281.6" fill="rgb(0,67,0)"/>
<polygon points="342.2,275.6 348.2,275.6 348.2,281.6 342.2,281.6" fill="rgb(20,0,0)"/>
<polygon points="348.2,275.6 354.2,275.6 354.2,281.6 348.2,281.6" fill="rgb(7,0,0)"/>
<polygon points="354.2,275.6 360.2,275.6 360.2,281.6 354.2,281.6" fill="rgb(66,0,0)"/>
<polygon points="360.2,275.6 366.2,275.6 366.2,281.6 360.2,281.6" fill="rgb(0,10,0)"/>
<polygon points="366.2,275.6 372.2,275.6 372.2,281.6 366.2,281.6" fill="rgb(25,0,0)"/>
<polygon points="372.2,275.6 378.2,275.6 378.2,281.6 372.2,281.6" fill="rgb(0,41,0)"/>
<polygon points="378.2,275.6 384.2,275.6 384.2,281.6 378.2,281.6" fill="rgb(0,57,0)"/>
<polygon points="384.2,275.6 390.2,275.6 390.2,281.6 384.2,281.6" fill="rgb(18,0,0)"/>
<polygon points="390.2,275.6 396.2,275.6 396.2,281.6 390.2,281.6" fill="rgb(1,0,0)"/>
<polygon points="396.2,275.6 402.2,275.6 402.2,281.6 396.2,281.6" fill="rgb(52,0,0)"/>
<polygon points="402.2,275.6 408.2,275.6 408.2,281.6 402.2,281.6" fill="rgb(0,16,0)"/>
<polygon points="408.2,275.6 414.2,275.6 414.2,281.6 408.2,281.6" fill="rgb(1,0,0)"/>
<polygon points="414.2,275.6 420.2,275.6 420.2,281.6 414.2,281.6" fill="rgb(1,0,0)"/>
<polygon points="430.2,275.6 436.2,275.6 436.2,281.6 430.2,281.6" fill="rgb(0,119,0)"/>
<polygon points="436.2,275.6 442.2,275.6 442.2,281.6 436.2,281.6" fill="rgb(0,26,0)"/>
<polygon points="442.2,275.6 448.2,275.6 448.2,281.6 442.2,281.6" fill="rgb(13,0,0)"/>
<polygon points="448.2,275.6 454.2,275.6 454.2,281.6 448.2,281.6" fill="rgb(141,0,0)"/>
<polygon points="454.2,275.6 460.2,275.6 460.2,281.6 454.2,281.6" fill="rgb(8,0,0)"/>
<polygon points="460.2,275.6 466.2,275.6 466.2,281.6 460.2,281.6" fill="rgb(0,46,0)"/>
<polygon points="466.2,275.6 472.2,275.6 472.2,281.6 466.2,281.6" fill="rgb(29,0,0)"/>
<polygon points="472.2,275.6 478.2,275.6 478.2,281.6 472.2,281.6" fill="rgb(0,77,0)"/>
<polygon points="478.2,275.6 484.2,275.6 484.2,281.6 478.2,281.6" fill="rgb(0,249,0)"/>
<polygon points="484.2,275.6 490.2,275.6 490.2,281.6 484.2,281.6" fill="rgb(45,0,0)"/>
<polygon points="490.2,275.6 496.2,275.6 496.2,281.6 490.2,281.6" fill="rgb(255,0,0)"/>
<polygon points="496.2,275.6 502.2,275.6 502.2,281.6 496.2,281.6" fill="rgb(213,0,0)"/>
<polygon points="502.2,275.6 508.2,275.6 508.2,281.6 502.2,281.6" fill="rgb(0,75,0)"/>
<polygon points="508.2,275.6 514.2,275.6 514.2,281.6 508.2,281.6" fill="rgb(0,217,0)"/>
<polygon points="192.2,281.6 200.2,281.6 200.2,287.6 192.2,287.6" fill="rgb(127,230,0)"/><text xml:space="preserve" x="196.2" y="287.433" font-family="Calibri" font-size="7.5" fill="rgb(0,0,0)" text-anchor="middle">2</text>
<polygon points="200.2,281.6 208.2,281.6 208.2,287.6 200.2,287.6" fill="rgb(205,0,0)"/><text xml:space="preserve" x="204.2" y="287.433" font-family="Calibri" font-size="7.5" fill="rgb(255,255,255)" text-anchor="middle">5</text>
<polygon points="208.2,281.6 216.2,281.6 216.2,287.6 208.2,287.6" fill="rgb(127,230,0)"/><text xml:space="preserve" x="212.2" y="287.433" font-family="Calibri" font-size="7.5" fill="rgb(0,0,0)" text-anchor="middle">2</text>
<polygon points="216.2,281.6 224.2,281.6 224.2,287.6 216.2,287.6" fill="rgb(255,255,0)"/><text xml:space="preserve" x="220.2" y="287.433" font-family="Calibri" font-size="7.5" fill="rgb(0,0,0)" text-anchor="middle">3</text>
<polygon points="224.2,281.6 232.2,281.6 232.2,287.6 224.2,287.6" fill="rgb(255,255,0)"/><text xml:space="preserve" x="228.2" y="287.433" font-family="Calibri" font-size="7.5" fill="rgb(0,0,0)" text-anchor="middle">3</text>
<polygon points="242.2,281.6 248.2,281.6 248.2,287.6 242.2,287.6" fill="rgb(0,84,0)"/>
<polygon points="248.2,281.6 254.2,281.6 254.2,287.6 248.2,287.6" fill="rgb(0,50,0)"/>
<polygon points="254.2,281.6 260.2,281.6 260.2,287.6 254.2,287.6" fill="rgb(9,0,0)"/>
<polygon points="260.2,281.6 266.2,281.6 266.2,287.6 260.2,287.6" fill="rgb(38,0,0)"/>
<polygon points="266.2,281.6 272.2,281.6 272.2,287.6 266.2,287.6" fill="rgb(73,0,0)"/>
<polygon points="272.2,281.6 278.2,281.6 278.2,287.6 272.2,287.6" fill="rgb(57,0,0)"/>
<polygon points="278.2,281.6 284.2,281.6 284.2,287.6 278.2,287.6" fill="rgb(0,44,0)"/>
<polygon points="284.2,281.6 290.2,281.6 290.2,287.6 284.2,287.6" fill="rgb(0,136,0)"/>
<polygon points="290.2,281.6 296.2,281.6 296.2,287.6 290.2,287.6" fill="rgb(7,0,0)"/>
<polygon points="296.2,281.6 302.2,281.6 302.2,287.6 296.2,287.6" fill="rgb(187,0,0)"/>
<polygon points="302.2,281.6 308.2,281.6 308.2,287.6 302.2,287.6" fill="rgb(154,0,0)"/>
<polygon points="308.2,281.6 314.2,281.6 314.2,287.6 308.2,287.6" fill="rgb(143,0,0)"/>
<polygon points="314.2,281.6 320.2,281.6 320.2,287.6 314.2,287.6" fill="rgb(0,75,0)"/>
<polygon points="320.2,281.6 326.2,281.6 326.2,287.6 320.2,287.6" fill="rgb(0,255,0)"/>
<polygon points="336.2,281.6 342.2,281.6 342.2,287.6 336.2,287.6" fill="rgb(0,5,0)"/>
<polygon points="342.2,281.6 348.2,281.6 348.2,287.6 342.2,287.6" fill="rgb(38,0,0)"/>
<polygon points="348.2,281.6 354.2,281.6 354.2,287.6 348.2,287.6" fill="rgb(0,27,0)"/>
<polygon points="354.2,281.6 360.2,281.6 360.2,287.6 354.2,287.6" fill="rgb(53,0,0)"/>
<polygon points="360.2,281.6 366.2,281.6 366.2,287.6 360.2,287.6" fill="rgb(44,0,0)"/>
<polygon points="366.2,281.6 372.2,281.6 372.2,287.6 366.2,287.6" fill="rgb(16,0,0)"/>
<polygon points="372.2,281.6 378.2,281.6 378.2,287.6 372.2,287.6" fill="rgb(0,120,0)"/>
<polygon points="378.2,281.6 384.2,281.6 384.2,287.6 378.2,287.6" fill="rgb(36,0,0)"/>
<polygon points="384.2,281.6 390.2,281.6 390.2,287.6 384.2,287.6" fill="rgb(7,0,0)"/>
<polygon points="390.2,281.6 396.2,281.6 396.2,287.6 390.2,287.6" fill="rgb(0,24,0)"/>
<polygon points="396.2,281.6 402.2,281.6 402.2,287.6 396.2,287.6" fill="rgb(7,0,0)"/>
<polygon points="402.2,281.6 408.2,281.6 408.2,287.6 402.2,287.6" fill="rgb(0,34,0)"/>
<polygon points="408.2,281.6 414.2,281.6 414.2,287.6 408.2,287.6" fill="rgb(45,0,0)"/>
<polygon points="414.2,281.6 420.2,281.6 420.2,287.6 414.2,287.6" fill="rgb(0,36,0)"/>
<polygon points="430.2,281.6 436.2,281.6 436.2,287.6 430.2,287.6" fill="rgb(0,13,0)"/>
<polygon points="436.2,281.6 442.2,281.6 442.2,287.6 436.2,287.6" fill="rgb(53,0,0)"/>
<polygon points="442.2,281.6 448.2,281.6 448.2,287.6 442.2,287.6" fill="rgb(0,136,0)"/>
<polygon points="448.2,281.6 454.2,281.6 454.2,287.6 448.2,287.6" fill="rgb(0,8,0)"/>
<polygon points="454.2,281.6 460.2,281.6 460.2,287.6 454.2,287.6" fill="rgb(87,0,0)"/>
<polygon points="460.2,281.6 466.2,281.6 466.2,287.6 460.2,287.6" fill="rgb(0,14,0)"/>
<polygon points="466.2,281.6 472.2,281.6 472.2,287.6 466.2,287.6" fill="rgb(32,0,0)"/>
<polygon points="472.2,281.6 478.2,281.6 478.2,287.6 472.2,287.6" fill="rgb(0,38,0)"/>
<polygon points="478.2,281.6 484.2,281.6 484.2,287.6 478.2,287.6" fill="rgb(0,92,0)"/>
<polygon points="484.2,281.6 490.2,281.6 490.2,287.6 484.2,287.6" fill="rgb(0,191,0)"/>
<polygon points="490.2,281.6 496.2,281.6 496.2,287.6 490.2,287.6" fill="rgb(255,0,0)"/>
<polygon points="496.2,281.6 502.2,281.6 502.2,287.6 496.2,287.6" fill="rgb(193,0,0)"/>
<polygon points="502.2,281.6 508.2,281.6 508.2,287.6 502.2,287.6" fill="rgb(0,22,0)"/>
<polygon points="508.2,281.6 514.2,281.6 514.2,287.6 508.2,287.6" fill="rgb(0,160,0)"/>
<polygon points="192.2,287.6 200.2,287.6 200.2,293.6 192.2,293.6" fill="rgb(127,230,0)"/><text xml:space="preserve" x="196.2" y="293.433" font-family="Calibri" font-size="7.5" fill="rgb(0,0,0)" text-anchor="middle">2</text>
<polygon points="200.2,287.6 208.2,287.6 208.2,293.6 200.2,293.6" fill="rgb(205,0,0)"/><text xml:space="preserve" x="204.2" y="293.433" font-family="Calibri" font-size="7.5" fill="rgb(255,255,255)" text-anchor="middle">5</text>
<polygon points="208.2,287.6 216.2,287.6 216.2,293.6 208.2,293.6" fill="rgb(127,230,0)"/><text xml:space="preserve" x="212.2" y="293.433" font-family="Calibri" font-size="7.5" fill="rgb(0,0,0)" text-anchor="middle">2</text>
<polygon points="216.2,287.6 224.2,287.6 224.2,293.6 216.2,293.6" fill="rgb(255,255,0)"/><text xml:space="preserve" x="220.2" y="293.433" font-family="Calibri" font-size="7.5" fill="rgb(0,0,0)" text-anchor="middle">3</text>
<polygon points="224.2,287.6 232.2,287.6 232.2,293.6 224.2,293.6" fill="rgb(255,255,0)"/><text xml:space="preserve" x="228.2" y="293.433" font-family="Calibri" font-size="7.5" fill="rgb(0,0,0)" text-anchor="middle">3</text>
<polygon points="242.2,287.6 248.2,287.6 248.2,293.6 242.2,293.6" fill="rgb(0,61,0)"/>
<polygon points="248.2,287.6 254.2,287.6 254.2,293.6 248.2,293.6" fill="rgb(0,43,0)"/>
<polygon points="254.2,287.6 260.2,287.6 260.2,293.6 254.2,293.6" fill="rgb(79,0,0)"/>
<polygon points="260.2,287.6 266.2,287.6 266.2,293.6 260.2,293.6" fill="rgb(95,0,0)"/>
<polygon points="266.2,287.6 272.2,287.6 272.2,293.6 266.2,293.6" fill="rgb(31,0,0)"/>
<polygon points="272.2,287.6 278.2,287.6 278.2,293.6 272.2,293.6" fill="rgb(0,40,0)"/>
<polygon points="278.2,287.6 284.2,287.6 284.2,293.6 278.2,293.6" fill="rgb(0,59,0)"/>
<polygon points="284.2,287.6 290.2,287.6 290.2,293.6 284.2,293.6" fill="rgb(0,24,0)"/>
<polygon points="290.2,287.6 296.2,287.6 296.2,293.6 290.2,293.6" fill="rgb(0,147,0)"/>
<polygon points="296.2,287.6 302.2,287.6 302.2,293.6 296.2,293.6" fill="rgb(157,0,0)"/>
<polygon points="302.2,287.6 308.2,287.6 308.2,293.6 302.2,293.6" fill="rgb(188,0,0)"/>
<polygon points="308.2,287.6 314.2,287.6 314.2,293.6 308.2,293.6" fill="rgb(94,0,0)"/>
<polygon points="314.2,287.6 320.2,287.6 320.2,293.6 314.2,293.6" fill="rgb(0,105,0)"/>
<polygon points="320.2,287.6 326.2,287.6 326.2,293.6 320.2,293.6" fill="rgb(0,164,0)"/>
<polygon points="336.2,287.6 342.2,287.6 342.2,293.6 336.2,293.6" fill="rgb(3,0,0)"/>
<polygon points="342.2,287.6 348.2,287.6 348.2,293.6 342.2,293.6" fill="rgb(33,0,0)"/>
<polygon points="348.2,287.6 354.2,287.6 354.2,293.6 348.2,293.6" fill="rgb(0,71,0)"/>
<polygon points="354.2,287.6 360.2,287.6 360.2,293.6 354.2,293.6" fill="rgb(16,0,0)"/>
<polygon points="360.2,287.6 366.2,287.6 366.2,293.6 360.2,293.6" fill="rgb(36,0,0)"/>
<polygon points="366.2,287.6 372.2,287.6 372.2,293.6 366.2,293.6" fill="rgb(1,0,0)"/>
<polygon points="372.2,287.6 378.2,287.6 378.2,293.6 372.2,293.6" fill="rgb(0,19,0)"/>
<polygon points="378.2,287.6 384.2,287.6 384.2,293.6 378.2,293.6" fill="rgb(32,0,0)"/>
<polygon points="384.2,287.6 390.2,287.6 390.2,293.6 384.2,293.6" fill="rgb(27,0,0)"/>
<polygon points="390.2,287.6 396.2,287.6 396.2,293.6 390.2,293.6" fill="rgb(0,36,0)"/>
<polygon points="396.2,287.6 402.2,287.6 402.2,293.6 396.2,293.6" fill="rgb(0,31,0)"/>
<polygon points="402.2,287.6 408.2,287.6 408.2,293.6 402.2,293.6" fill="rgb(0,31,0)"/>
<polygon points="408.2,287.6 414.2,287.6 414.2,293.6 408.2,293.6" fill="rgb(24,0,0)"/>
<polygon points="414.2,287.6 420.2,287.6 420.2,293.6 414.2,293.6" fill="rgb(16,0,0)"/>
<polygon points="430.2,287.6 436.2,287.6 436.2,293.6 430.2,293.6" fill="rgb(0,41,0)"/>
<polygon points="436.2,287.6 442.2,287.6 442.2,293.6 436.2,293.6" fill="rgb(0,41,0)"/>
<polygon points="442.2,287.6 448.2,287.6 448.2,293.6 442.2,293.6" fill="rgb(10,0,0)"/>
<polygon points="448.2,287.6 454.2,287.6 454.2,293.6 448.2,293.6" fill="rgb(0,0,0)"/>
<polygon points="454.2,287.6 460.2,287.6 460.2,293.6 454.2,293.6" fill="rgb(53,0,0)"/>
<polygon points="460.2,287.6 466.2,287.6 466.2,293.6 460.2,293.6" fill="rgb(3,0,0)"/>
<polygon points="466.2,287.6 472.2,287.6 472.2,293.6 466.2,293.6" fill="rgb(15,0,0)"/>
<polygon points="472.2,287.6 478.2,287.6 478.2,293.6 472.2,293.6" fill="rgb(0,234,0)"/>
<polygon points="478.2,287.6 484.2,287.6 484.2,293.6 478.2,293.6" fill="rgb(1,0,0)"/>
<polygon points="484.2,287.6 490.2,287.6 490.2,293.6 484.2,293.6" fill="rgb(0,104,0)"/>
<polygon points="490.2,287.6 496.2,287.6 496.2,293.6 490.2,293.6" fill="rgb(164,0,0)"/>
<polygon points="496.2,287.6 502.2,287.6 502.2,293.6 496.2,293.6" fill="rgb(175,0,0)"/>
<polygon points="502.2,287.6 508.2,287.6 508.2,293.6 502.2,293.6" fill="rgb(0,20,0)"/>
<polygon points="508.2,287.6 514.2,287.6 514.2,293.6 508.2,293.6" fill="rgb(17,0,0)"/>
<polygon points="192.2,293.6 200.2,293.6 200.2,299.6 192.2,299.6" fill="rgb(127,230,0)"/><text xml:space="preserve" x="196.2" y="299.433" font-family="Calibri" font-size="7.5" fill="rgb(0,0,0)" text-anchor="middle">2</text>
<polygon points="200.2,293.6 208.2,293.6 208.2,299.6 200.2,299.6" fill="rgb(205,0,0)"/><text xml:space="preserve" x="204.2" y="299.433" font-family="Calibri" font-size="7.5" fill="rgb(255,255,255)" text-anchor="middle">5</text>
<polygon points="208.2,293.6 216.2,293.6 216.2,299.6 208.2,299.6" fill="rgb(127,230,0)"/><text xml:space="preserve" x="212.2" y="299.433" font-family="Calibri" font-size="7.5" fill="rgb(0,0,0)" text-anchor="middle">2</text>
<polygon points="216.2,293.6 224.2,293.6 224.2,299.6 216.2,299.6" fill="rgb(255,255,0)"/><text xml:space="preserve" x="220.2" y="299.433" font-family="Calibri" font-size="7.5" fill="rgb(0,0,0)" text-anchor="middle">3</text>
<polygon points="224.2,293.6 232.2,293.6 232.2,299.6 224.2,299.6" fill="rgb(255,255,0)"/><text xml:space="preserve" x="228.2" y="299.433" font-family="Calibri" font-size="7.5" fill="rgb(0,0,0)" text-anchor="middle">3</text>
<polygon points="242.2,293.6 248.2,293.6 248.2,299.6 242.2,299.6" fill="rgb(0,2,0)"/>
<polygon points="248.2,293.6 254.2,293.6 254.2,299.6 248.2,299.6" fill="rgb(0,32,0)"/>
<polygon points="254.2,293.6 260.2,293.6 260.2,299.6 254.2,299.6" fill="rgb(25,0,0)"/>
<polygon points="260.2,293.6 266.2,293.6 266.2,299.6 260.2,299.6" fill="rgb(118,0,0)"/>
<polygon points="266.2,293.6 272.2,293.6 272.2,299.6 266.2,299.6" fill="rgb(22,0,0)"/>
<polygon points="272.2,293.6 278.2,293.6 278.2,299.6 272.2,299.6" fill="rgb(0,89,0)"/>
<polygon points="278.2,293.6 284.2,293.6 284.2,299.6 278.2,299.6" fill="rgb(0,40,0)"/>
<polygon points="284.2,293.6 290.2,293.6 290.2,299.6 284.2,299.6" fill="rgb(0,156,0)"/>
<polygon points="290.2,293.6 296.2,293.6 296.2,299.6 290.2,299.6" fill="rgb(1,0,0)"/>
<polygon points="296.2,293.6 302.2,293.6 302.2,299.6 296.2,299.6" fill="rgb(175,0,0)"/>
<polygon points="302.2,293.6 308.2,293.6 308.2,299.6 302.2,299.6" fill="rgb(220,0,0)"/>
<polygon points="308.2,293.6 314.2,293.6 314.2,299.6 308.2,299.6" fill="rgb(88,0,0)"/>
<polygon points="314.2,293.6 320.2,293.6 320.2,299.6 314.2,299.6" fill="rgb(0,137,0)"/>
<polygon points="320.2,293.6 326.2,293.6 326.2,299.6 320.2,299.6" fill="rgb(0,191,0)"/>
<polygon points="336.2,293.6 342.2,293.6 342.2,299.6 336.2,299.6" fill="rgb(9,0,0)"/>
<polygon points="342.2,293.6 348.2,293.6 348.2,299.6 342.2,299.6" fill="rgb(0,76,0)"/>
<polygon points="348.2,293.6 354.2,293.6 354.2,299.6 348.2,299.6" fill="rgb(53,0,0)"/>
<polygon points="354.2,293.6 360.2,293.6 360.2,299.6 354.2,299.6" fill="rgb(39,0,0)"/>
<polygon points="360.2,293.6 366.2,293.6 366.2,299.6 360.2,299.6" fill="rgb(0,35,0)"/>
<polygon points="366.2,293.6 372.2,293.6 372.2,299.6 366.2,299.6" fill="rgb(18,0,0)"/>
<polygon points="372.2,293.6 378.2,293.6 378.2,299.6 372.2,299.6" fill="rgb(0,8,0)"/>
<polygon points="378.2,293.6 384.2,293.6 384.2,299.6 378.2,299.6" fill="rgb(6,0,0)"/>
<polygon points="384.2,293.6 390.2,293.6 390.2,299.6 384.2,299.6" fill="rgb(0,86,0)"/>
<polygon points="390.2,293.6 396.2,293.6 396.2,299.6 390.2,299.6" fill="rgb(11,0,0)"/>
<polygon points="396.2,293.6 402.2,293.6 402.2,299.6 396.2,299.6" fill="rgb(87,0,0)"/>
<polygon points="402.2,293.6 408.2,293.6 408.2,299.6 402.2,299.6" fill="rgb(0,86,0)"/>
<polygon points="408.2,293.6 414.2,293.6 414.2,299.6 408.2,299.6" fill="rgb(19,0,0)"/>
<polygon points="414.2,293.6 420.2,293.6 420.2,299.6 414.2,299.6" fill="rgb(48,0,0)"/>
<polygon points="430.2,293.6 436.2,293.6 436.2,299.6 430.2,299.6" fill="rgb(2,0,0)"/>
<polygon points="436.2,293.6 442.2,293.6 442.2,299.6 436.2,299.6" fill="rgb(7,0,0)"/>
<polygon points="442.2,293.6 448.2,293.6 448.2,299.6 442.2,299.6" fill="rgb(0,27,0)"/>
<polygon points="448.2,293.6 454.2,293.6 454.2,299.6 448.2,299.6" fill="rgb(90,0,0)"/>
<polygon points="454.2,293.6 460.2,293.6 460.2,299.6 454.2,299.6" fill="rgb(31,0,0)"/>
<polygon points="460.2,293.6 466.2,293.6 466.2,299.6 460.2,299.6" fill="rgb(0,83,0)"/>
<polygon points="466.2,293.6 472.2,293.6 472.2,299.6 466.2,299.6" fill="rgb(0,21,0)"/>
<polygon points="472.2,293.6 478.2,293.6 478.2,299.6 472.2,299.6" fill="rgb(0,255,0)"/>
<polygon points="478.2,293.6 484.2,293.6 484.2,299.6 478.2,299.6" fill="rgb(0,255,0)"/>
<polygon points="484.2,293.6 490.2,293.6 490.2,299.6 484.2,299.6" fill="rgb(5,0,0)"/>
<polygon points="490.2,293.6 496.2,293.6 496.2,299.6 490.2,299.6" fill="rgb(255,0,0)"/>
<polygon points="496.2,293.6 502.2,293.6 502.2,299.6 496.2,299.6" fill="rgb(252,0,0)"/>
<polygon points="502.2,293.6 508.2,293.6 508.2,299.6 502.2,299.6" fill="rgb(0,0,0)"/>
<polygon points="508.2,293.6 514.2,293.6 514.2,299.6 508.2,299.6" fill="rgb(0,30,0)"/>
<polygon points="192.2,299.6 200.2,299.6 200.2,305.6 192.2,305.6" fill="rgb(127,230,0)"/><text xml:space="preserve" x="196.2" y="305.433" font-family="Calibri" font-size="7.5" fill="rgb(0,0,0)" text-anchor="middle">2</text>
<polygon points="200.2,299.6 208.2,299.6 208.2,305.6 200.2,305.6" fill="rgb(205,0,0)"/><text xml:space="preserve" x="204.2" y="305.433" font-family="Calibri" font-size="7.5" fill="rgb(255,255,255)" text-anchor="middle">5</text>
<polygon points="208.2,299.6 216.2,299.6 216.2,305.6 208.2,305.6" fill="rgb(127,230,0)"/><text xml:space="preserve" x="212.2" y="305.433" font-family="Calibri" font-size="7.5" fill="rgb(0,0,0)" text-anchor="middle">2</text>
<polygon points="216.2,299.6 224.2,299.6 224.2,305.6 216.2,305.6" fill="rgb(255,255,0)"/><text xml:space="preserve" x="220.2" y="305.433" font-family="Calibri" font-size="7.5" fill="rgb(0,0,0)" text-anchor="middle">3</text>
<polygon points="224.2,299.6 232.2,299.6 232.2,305.6 224.2,305.6" fill="rgb(255,255,0)"/><text xml:space="preserve" x="228.2" y="305.433" font-family="Calibri" font-size="7.5" fill="rgb(0,0,0)" text-anchor="middle">3</text>
<polygon points="242.2,299.6 248.2,299.6 248.2,305.6 242.2,305.6" fill="rgb(0,77,0)"/>
<polygon points="248.2,299.6 254.2,299.6 254.2,305.6 248.2,305.6" fill="rgb(0,85,0)"/>
<polygon points="254.2,299.6 260.2,299.6 260.2,305.6 254.2,305.6" fill="rgb(0,87,0)"/>
<polygon points="260.2,299.6 266.2,299.6 266.2,305.6 260.2,305.6" fill="rgb(88,0,0)"/>
<polygon points="266.2,299.6 272.2,299.6 272.2,305.6 266.2,305.6" fill="rgb(6,0,0)"/>
<polygon points="272.2,299.6 278.2,299.6 278.2,305.6 272.2,305.6" fill="rgb(42,0,0)"/>
<polygon points="278.2,299.6 284.2,299.6 284.2,305.6 278.2,305.6" fill="rgb(112,0,0)"/>
<polygon points="284.2,299.6 290.2,299.6 290.2,305.6 284.2,305.6" fill="rgb(0,170,0)"/>
<polygon points="290.2,299.6 296.2,299.6 296.2,305.6 290.2,305.6" fill="rgb(0,26,0)"/>
<polygon points="296.2,299.6 302.2,299.6 302.2,305.6 296.2,305.6" fill="rgb(134,0,0)"/>
<polygon points="302.2,299.6 308.2,299.6 308.2,305.6 302.2,305.6" fill="rgb(177,0,0)"/>
<polygon points="308.2,299.6 314.2,299.6 314.2,305.6 308.2,305.6" fill="rgb(116,0,0)"/>
<polygon points="314.2,299.6 320.2,299.6 320.2,305.6 314.2,305.6" fill="rgb(0,131,0)"/>
<polygon points="320.2,299.6 326.2,299.6 326.2,305.6 320.2,305.6" fill="rgb(0,99,0)"/>
<polygon points="336.2,299.6 342.2,299.6 342.2,305.6 336.2,305.6" fill="rgb(0,61,0)"/>
<polygon points="342.2,299.6 348.2,299.6 348.2,305.6 342.2,305.6" fill="rgb(95,0,0)"/>
<polygon points="348.2,299.6 354.2,299.6 354.2,305.6 348.2,305.6" fill="rgb(36,0,0)"/>
<polygon points="354.2,299.6 360.2,299.6 360.2,305.6 354.2,305.6" fill="rgb(0,25,0)"/>
<polygon points="360.2,299.6 366.2,299.6 366.2,305.6 360.2,305.6" fill="rgb(0,15,0)"/>
<polygon points="366.2,299.6 372.2,299.6 372.2,305.6 366.2,305.6" fill="rgb(0,7,0)"/>
<polygon points="372.2,299.6 378.2,299.6 378.2,305.6 372.2,305.6" fill="rgb(0,22,0)"/>
<polygon points="378.2,299.6 384.2,299.6 384.2,305.6 378.2,305.6" fill="rgb(0,28,0)"/>
<polygon points="384.2,299.6 390.2,299.6 390.2,305.6 384.2,305.6" fill="rgb(0,87,0)"/>
<polygon points="390.2,299.6 396.2,299.6 396.2,305.6 390.2,305.6" fill="rgb(29,0,0)"/>
<polygon points="396.2,299.6 402.2,299.6 402.2,305.6 396.2,305.6" fill="rgb(5,0,0)"/>
<polygon points="402.2,299.6 408.2,299.6 408.2,305.6 402.2,305.6" fill="rgb(0,87,0)"/>
<polygon points="408.2,299.6 414.2,299.6 414.2,305.6 408.2,305.6" fill="rgb(48,0,0)"/>
<polygon points="414.2,299.6 420.2,299.6 420.2,305.6 414.2,305.6" fill="rgb(120,0,0)"/>
<polygon points="430.2,299.6 436.2,299.6 436.2,305.6 430.2,305.6" fill="rgb(0,115,0)"/>
<polygon points="436.2,299.6 442.2,299.6 442.2,305.6 436.2,305.6" fill="rgb(0,1,0)"/>
<polygon points="442.2,299.6 448.2,299.6 448.2,305.6 442.2,305.6" fill="rgb(30,0,0)"/>
<polygon points="448.2,299.6 454.2,299.6 454.2,305.6 448.2,305.6" fill="rgb(49,0,0)"/>
<polygon points="454.2,299.6 460.2,299.6 460.2,305.6 454.2,305.6" fill="rgb(89,0,0)"/>
<polygon points="460.2,299.6 466.2,299.6 466.2,305.6 460.2,305.6" fill="rgb(0,42,0)"/>
<polygon points="466.2,299.6 472.2,299.6 472.2,305.6 466.2,305.6" fill="rgb(0,8,0)"/>
<polygon points="472.2,299.6 478.2,299.6 478.2,305.6 472.2,305.6" fill="rgb(0,211,0)"/>
<polygon points="478.2,299.6 484.2,299.6 484.2,305.6 478.2,305.6" fill="rgb(0,191,0)"/>
<polygon points="484.2,299.6 490.2,299.6 490.2,305.6 484.2,305.6" fill="rgb(0,57,0)"/>
<polygon points="490.2,299.6 496.2,299.6 496.2,305.6 490.2,305.6" fill="rgb(135,0,0)"/>
<polygon points="496.2,299.6 502.2,299.6 502.2,305.6 496.2,305.6" fill="rgb(255,0,0)"/>
<polygon points="502.2,299.6 508.2,299.6 508.2,305.6 502.2,305.6" fill="rgb(59,0,0)"/>
<polygon points="508.2,299.6 514.2,299.6 514.2,305.6 508.2,305.6" fill="rgb(0,29,0)"/>
<polygon points="192.2,305.6 200.2,305.6 200.2,311.6 192.2,311.6" fill="rgb(127,230,0)"/><text xml:space="preserve" x="196.2" y="311.433" font-family="Calibri" font-size="7.5" fill="rgb(0,0,0)" text-anchor="middle">2</text>
<polygon points="200.2,305.6 208.2,305.6 208.2,311.6 200.2,311.6" fill="rgb(205,0,0)"/><text xml:space="preserve" x="204.2" y="311.433" font-family="Calibri" font-size="7.5" fill="rgb(255,255,255)" text-anchor="middle">5</text>
<polygon points="208.2,305.6 216.2,305.6 216.2,311.6 208.2,311.6" fill="rgb(127,230,0)"/><text xml:space="preserve" x="212.2" y="311.433" font-family="Calibri" font-size="7.5" fill="rgb(0,0,0)" text-anchor="middle">2</text>
<polygon points="216.2,305.6 224.2,305.6 224.2,311.6 216.2,311.6" fill="rgb(255,255,0)"/><text xml:space="preserve" x="220.2" y="311.433" font-family="Calibri" font-size="7.5" fill="rgb(0,0,0)" text-anchor="middle">3</text>
<polygon points="224.2,305.6 232.2,305.6 232.2,311.6 224.2,311.6" fill="rgb(255,255,0)"/><text xml:space="preserve" x="228.2" y="311.433" font-family="Calibri" font-size="7.5" fill="rgb(0,0,0)" text-anchor="middle">3</text>
<polygon points="242.2,305.6 248.2,305.6 248.2,311.6 242.2,311.6" fill="rgb(0,84,0)"/>
<polygon points="248.2,305.6 254.2,305.6 254.2,311.6 248.2,311.6" fill="rgb(35,0,0)"/>
<polygon points="254.2,305.6 260.2,305.6 260.2,311.6 254.2,311.6" fill="rgb(67,0,0)"/>
<polygon points="260.2,305.6 266.2,305.6 266.2,311.6 260.2,311.6" fill="rgb(60,0,0)"/>
<polygon points="266.2,305.6 272.2,305.6 272.2,311.6 266.2,311.6" fill="rgb(0,12,0)"/>
<polygon points="272.2,305.6 278.2,305.6 278.2,311.6 272.2,311.6" fill="rgb(0,52,0)"/>
<polygon points="278.2,305.6 284.2,305.6 284.2,311.6 278.2,311.6" fill="rgb(0,13,0)"/>
<polygon points="284.2,305.6 290.2,305.6 290.2,311.6 284.2,311.6" fill="rgb(0,116,0)"/>
<polygon points="290.2,305.6 296.2,305.6 296.2,311.6 290.2,311.6" fill="rgb(0,49,0)"/>
<polygon points="296.2,305.6 302.2,305.6 302.2,311.6 296.2,311.6" fill="rgb(110,0,0)"/>
<polygon points="302.2,305.6 308.2,305.6 308.2,311.6 302.2,311.6" fill="rgb(243,0,0)"/>
<polygon points="308.2,305.6 314.2,305.6 314.2,311.6 308.2,311.6" fill="rgb(100,0,0)"/>
<polygon points="314.2,305.6 320.2,305.6 320.2,311.6 314.2,311.6" fill="rgb(0,44,0)"/>
<polygon points="320.2,305.6 326.2,305.6 326.2,311.6 320.2,311.6" fill="rgb(0,243,0)"/>
<polygon points="336.2,305.6 342.2,305.6 342.2,311.6 336.2,311.6" fill="rgb(0,18,0)"/>
<polygon points="342.2,305.6 348.2,305.6 348.2,311.6 342.2,311.6" fill="rgb(16,0,0)"/>
<polygon points="348.2,305.6 354.2,305.6 354.2,311.6 348.2,311.6" fill="rgb(20,0,0)"/>
<polygon points="354.2,305.6 360.2,305.6 360.2,311.6 354.2,311.6" fill="rgb(0,40,0)"/>
<polygon points="360.2,305.6 366.2,305.6 366.2,311.6 360.2,311.6" fill="rgb(0,28,0)"/>
<polygon points="366.2,305.6 372.2,305.6 372.2,311.6 366.2,311.6" fill="rgb(33,0,0)"/>
<polygon points="372.2,305.6 378.2,305.6 378.2,311.6 372.2,311.6" fill="rgb(16,0,0)"/>
<polygon points="378.2,305.6 384.2,305.6 384.2,311.6 378.2,311.6" fill="rgb(0,33,0)"/>
<polygon points="384.2,305.6 390.2,305.6 390.2,311.6 384.2,311.6" fill="rgb(0,80,0)"/>
<polygon points="390.2,305.6 396.2,305.6 396.2,311.6 390.2,311.6" fill="rgb(9,0,0)"/>
<polygon points="396.2,305.6 402.2,305.6 402.2,311.6 396.2,311.6" fill="rgb(17,0,0)"/>
<polygon points="402.2,305.6 408.2,305.6 408.2,311.6 402.2,311.6" fill="rgb(0,1,0)"/>
<polygon points="408.2,305.6 414.2,305.6 414.2,311.6 408.2,311.6" fill="rgb(0,77,0)"/>
<polygon points="414.2,305.6 420.2,305.6 420.2,311.6 414.2,311.6" fill="rgb(166,0,0)"/>
<polygon points="430.2,305.6 436.2,305.6 436.2,311.6 430.2,311.6" fill="rgb(4,0,0)"/>
<polygon points="436.2,305.6 442.2,305.6 442.2,311.6 436.2,311.6" fill="rgb(20,0,0)"/>
<polygon points="442.2,305.6 448.2,305.6 448.2,311.6 442.2,311.6" fill="rgb(0,14,0)"/>
<polygon points="448.2,305.6 454.2,305.6 454.2,311.6 448.2,311.6" fill="rgb(0,55,0)"/>
<polygon points="454.2,305.6 460.2,305.6 460.2,311.6 454.2,311.6" fill="rgb(26,0,0)"/>
<polygon points="460.2,305.6 466.2,305.6 466.2,311.6 460.2,311.6" fill="rgb(26,0,0)"/>
<polygon points="466.2,305.6 472.2,305.6 472.2,311.6 466.2,311.6" fill="rgb(0,7,0)"/>
<polygon points="472.2,305.6 478.2,305.6 478.2,311.6 472.2,311.6" fill="rgb(0,194,0)"/>
<polygon points="478.2,305.6 484.2,305.6 484.2,311.6 478.2,311.6" fill="rgb(0,143,0)"/>
<polygon points="484.2,305.6 490.2,305.6 490.2,311.6 484.2,311.6" fill="rgb(58,0,0)"/>
<polygon points="490.2,305.6 496.2,305.6 496.2,311.6 490.2,311.6" fill="rgb(255,0,0)"/>
<polygon points="496.2,305.6 502.2,305.6 502.2,311.6 496.2,311.6" fill="rgb(108,0,0)"/>
<polygon points="502.2,305.6 508.2,305.6 508.2,311.6 502.2,311.6" fill="rgb(0,85,0)"/>
<polygon points="508.2,305.6 514.2,305.6 514.2,311.6 508.2,311.6" fill="rgb(0,98,0)"/>
<polygon points="192.2,311.6 200.2,311.6 200.2,317.6 192.2,317.6" fill="rgb(127,230,0)"/><text xml:space="preserve" x="196.2" y="317.433" font-family="Calibri" font-size="7.5" fill="rgb(0,0,0)" text-anchor="middle">2</text>
<polygon points="200.2,311.6 208.2,311.6 208.2,317.6 200.2,317.6" fill="rgb(205,0,0)"/><text xml:space="preserve" x="204.2" y="317.433" font-family="Calibri" font-size="7.5" fill="rgb(255,255,255)" text-anchor="middle">5</text>
<polygon points="208.2,311.6 216.2,311.6 216.2,317.6 208.2,317.6" fill="rgb(127,230,0)"/><text xml:space="preserve" x="212.2" y="317.433" font-family="Calibri" font-size="7.5" fill="rgb(0,0,0)" text-anchor="middle">2</text>
<polygon points="216.2,311.6 224.2,311.6 224.2,317.6 216.2,317.6" fill="rgb(255,255,0)"/><text xml:space="preserve" x="220.2" y="317.433" font-family="Calibri" font-size="7.5" fill="rgb(0,0,0)" text-anchor="middle">3</text>
<polygon points="224.2,311.6 232.2,311.6 232.2,317.6 224.2,317.6" fill="rgb(255,255,0)"/><text xml:space="preserve" x="228.2" y="317.433" font-family="Calibri" font-size="7.5" fill="rgb(0,0,0)" text-anchor="middle">3</text>
<polygon points="242.2,311.6 248.2,311.6 248.2,317.6 242.2,317.6" fill="rgb(0,44,0)"/>
<polygon points="248.2,311.6 254.2,311.6 254.2,317.6 248.2,317.6" fill="rgb(0,55,0)"/>
<polygon points="254.2,311.6 260.2,311.6 260.2,317.6 254.2,317.6" fill="rgb(108,0,0)"/>
<polygon points="260.2,311.6 266.2,311.6 266.2,317.6 260.2,317.6" fill="rgb(91,0,0)"/>
<polygon points="266.2,311.6 272.2,311.6 272.2,317.6 266.2,317.6" fill="rgb(0,32,0)"/>
<polygon points="272.2,311.6 278.2,311.6 278.2,317.6 272.2,317.6" fill="rgb(56,0,0)"/>
<polygon points="278.2,311.6 284.2,311.6 284.2,317.6 278.2,317.6" fill="rgb(0,124,0)"/>
<polygon points="284.2,311.6 290.2,311.6 290.2,317.6 284.2,317.6" fill="rgb(25,0,0)"/>
<polygon points="290.2,311.6 296.2,311.6 296.2,317.6 290.2,317.6" fill="rgb(0,125,0)"/>
<polygon points="296.2,311.6 302.2,311.6 302.2,317.6 296.2,317.6" fill="rgb(231,0,0)"/>
<polygon points="302.2,311.6 308.2,311.6 308.2,317.6 302.2,317.6" fill="rgb(144,0,0)"/>
<polygon points="308.2,311.6 314.2,311.6 314.2,317.6 308.2,317.6" fill="rgb(0,57,0)"/>
<polygon points="314.2,311.6 320.2,311.6 320.2,317.6 314.2,317.6" fill="rgb(0,91,0)"/>
<polygon points="320.2,311.6 326.2,311.6 326.2,317.6 320.2,317.6" fill="rgb(0,125,0)"/>
<polygon points="336.2,311.6 342.2,311.6 342.2,317.6 336.2,317.6" fill="rgb(0,33,0)"/>
<polygon points="342.2,311.6 348.2,311.6 348.2,317.6 342.2,317.6" fill="rgb(23,0,0)"/>
<polygon points="348.2,311.6 354.2,311.6 354.2,317.6 348.2,317.6" fill="rgb(0,28,0)"/>
<polygon points="354.2,311.6 360.2,311.6 360.2,317.6 354.2,317.6" fill="rgb(49,0,0)"/>
<polygon points="360.2,311.6 366.2,311.6 366.2,317.6 360.2,317.6" fill="rgb(80,0,0)"/>
<polygon points="366.2,311.6 372.2,311.6 372.2,317.6 366.2,317.6" fill="rgb(0,53,0)"/>
<polygon points="372.2,311.6 378.2,311.6 378.2,317.6 372.2,317.6" fill="rgb(0,38,0)"/>
<polygon points="378.2,311.6 384.2,311.6 384.2,317.6 378.2,317.6" fill="rgb(0,57,0)"/>
<polygon points="384.2,311.6 390.2,311.6 390.2,317.6 384.2,317.6" fill="rgb(0,17,0)"/>
<polygon points="390.2,311.6 396.2,311.6 396.2,317.6 390.2,317.6" fill="rgb(0,17,0)"/>
<polygon points="396.2,311.6 402.2,311.6 402.2,317.6 396.2,317.6" fill="rgb(0,10,0)"/>
<polygon points="402.2,311.6 408.2,311.6 408.2,317.6 402.2,317.6" fill="rgb(46,0,0)"/>
<polygon points="408.2,311.6 414.2,311.6 414.2,317.6 408.2,317.6" fill="rgb(6,0,0)"/>
<polygon points="414.2,311.6 420.2,311.6 420.2,317.6 414.2,317.6" fill="rgb(48,0,0)"/>
<polygon points="430.2,311.6 436.2,311.6 436.2,317.6 430.2,317.6" fill="rgb(0,75,0)"/>
<polygon points="436.2,311.6 442.2,311.6 442.2,317.6 436.2,317.6" fill="rgb(9,0,0)"/>
<polygon points="442.2,311.6 448.2,311.6 448.2,317.6 442.2,317.6" fill="rgb(71,0,0)"/>
<polygon points="448.2,311.6 454.2,311.6 454.2,317.6 448.2,317.6" fill="rgb(34,0,0)"/>
<polygon points="454.2,311.6 460.2,311.6 460.2,317.6 454.2,317.6" fill="rgb(107,0,0)"/>
<polygon points="460.2,311.6 466.2,311.6 466.2,317.6 460.2,317.6" fill="rgb(0,9,0)"/>
<polygon points="466.2,311.6 472.2,311.6 472.2,317.6 466.2,317.6" fill="rgb(0,136,0)"/>
<polygon points="472.2,311.6 478.2,311.6 478.2,317.6 472.2,317.6" fill="rgb(0,161,0)"/>
<polygon points="478.2,311.6 484.2,311.6 484.2,317.6 478.2,317.6" fill="rgb(0,114,0)"/>
<polygon points="484.2,311.6 490.2,311.6 490.2,317.6 484.2,317.6" fill="rgb(0,31,0)"/>
<polygon points="490.2,311.6 496.2,311.6 496.2,317.6 490.2,317.6" fill="rgb(137,0,0)"/>
<polygon points="496.2,311.6 502.2,311.6 502.2,317.6 496.2,317.6" fill="rgb(247,0,0)"/>
<polygon points="502.2,311.6 508.2,311.6 508.2,317.6 502.2,317.6" fill="rgb(36,0,0)"/>
<polygon points="508.2,311.6 514.2,311.6 514.2,317.6 508.2,317.6" fill="rgb(0,114,0)"/>
<polygon points="192.2,317.6 200.2,317.6 200.2,323.6 192.2,323.6" fill="rgb(127,230,0)"/><text xml:space="preserve" x="196.2" y="323.433" font-family="Calibri" font-size="7.5" fill="rgb(0,0,0)" text-anchor="middle">2</text>
<polygon points="200.2,317.6 208.2,317.6 208.2,323.6 200.2,323.6" fill="rgb(205,0,0)"/><text xml:space="preserve" x="204.2" y="323.433" font-family="Calibri" font-size="7.5" fill="rgb(255,255,255)" text-anchor="middle">5</text>
<polygon points="208.2,317.6 216.2,317.6 216.2,323.6 208.2,323.6" fill="rgb(127,230,0)"/><text xml:space="preserve" x="212.2" y="323.433" font-family="Calibri" font-size="7.5" fill="rgb(0,0,0)" text-anchor="middle">2</text>
<polygon points="216.2,317.6 224.2,317.6 224.2,323.6 216.2,323.6" fill="rgb(255,255,0)"/><text xml:space="preserve" x="220.2" y="323.433" font-family="Calibri" font-size="7.5" fill="rgb(0,0,0)" text-anchor="middle">3</text>
<polygon points="224.2,317.6 232.2,317.6 232.2,323.6 224.2,323.6" fill="rgb(255,255,0)"/><text xml:space="preserve" x="228.2" y="323.433" font-family="Calibri" font-size="7.5" fill="rgb(0,0,0)" text-anchor="middle">3</text>
<polygon points="242.2,317.6 248.2,317.6 248.2,323.6 242.2,323.6" fill="rgb(0,14,0)"/>
<polygon points="248.2,317.6 254.2,317.6 254.2,323.6 248.2,323.6" fill="rgb(2,0,0)"/>
<polygon points="254.2,317.6 260.2,317.6 260.2,323.6 254.2,323.6" fill="rgb(0,31,0)"/>
<polygon points="260.2,317.6 266.2,317.6 266.2,323.6 260.2,323.6" fill="rgb(158,0,0)"/>
<polygon points="266.2,317.6 272.2,317.6 272.2,323.6 266.2,323.6" fill="rgb(21,0,0)"/>
<polygon points="272.2,317.6 278.2,317.6 278.2,323.6 272.2,323.6" fill="rgb(0,24,0)"/>
<polygon points="278.2,317.6 284.2,317.6 284.2,323.6 278.2,323.6" fill="rgb(0,111,0)"/>
<polygon points="284.2,317.6 290.2,317.6 290.2,323.6 284.2,323.6" fill="rgb(0,154,0)"/>
<polygon points="290.2,317.6 296.2,317.6 296.2,323.6 290.2,323.6" fill="rgb(88,0,0)"/>
<polygon points="296.2,317.6 302.2,317.6 302.2,323.6 296.2,323.6" fill="rgb(255,0,0)"/>
<polygon points="302.2,317.6 308.2,317.6 308.2,323.6 302.2,323.6" fill="rgb(111,0,0)"/>
<polygon points="308.2,317.6 314.2,317.6 314.2,323.6 308.2,323.6" fill="rgb(84,0,0)"/>
<polygon points="314.2,317.6 320.2,317.6 320.2,323.6 314.2,323.6" fill="rgb(0,150,0)"/>
<polygon points="320.2,317.6 326.2,317.6 326.2,323.6 320.2,323.6" fill="rgb(0,252,0)"/>
<polygon points="336.2,317.6 342.2,317.6 342.2,323.6 336.2,323.6" fill="rgb(0,12,0)"/>
<polygon points="342.2,317.6 348.2,317.6 348.2,323.6 342.2,323.6" fill="rgb(0,7,0)"/>
<polygon points="348.2,317.6 354.2,317.6 354.2,323.6 348.2,323.6" fill="rgb(28,0,0)"/>
<polygon points="354.2,317.6 360.2,317.6 360.2,323.6 354.2,323.6" fill="rgb(6,0,0)"/>
<polygon points="360.2,317.6 366.2,317.6 366.2,323.6 360.2,323.6" fill="rgb(37,0,0)"/>
<polygon points="366.2,317.6 372.2,317.6 372.2,323.6 366.2,323.6" fill="rgb(18,0,0)"/>
<polygon points="372.2,317.6 378.2,317.6 378.2,323.6 372.2,323.6" fill="rgb(0,70,0)"/>
<polygon points="378.2,317.6 384.2,317.6 384.2,323.6 378.2,323.6" fill="rgb(23,0,0)"/>
<polygon points="384.2,317.6 390.2,317.6 390.2,323.6 384.2,323.6" fill="rgb(50,0,0)"/>
<polygon points="390.2,317.6 396.2,317.6 396.2,323.6 390.2,323.6" fill="rgb(0,47,0)"/>
<polygon points="396.2,317.6 402.2,317.6 402.2,323.6 396.2,323.6" fill="rgb(11,0,0)"/>
<polygon points="402.2,317.6 408.2,317.6 408.2,323.6 402.2,323.6" fill="rgb(50,0,0)"/>
<polygon points="408.2,317.6 414.2,317.6 414.2,323.6 408.2,323.6" fill="rgb(6,0,0)"/>
<polygon points="414.2,317.6 420.2,317.6 420.2,323.6 414.2,323.6" fill="rgb(0,94,0)"/>
<polygon points="430.2,317.6 436.2,317.6 436.2,323.6 430.2,323.6" fill="rgb(81,0,0)"/>
<polygon points="436.2,317.6 442.2,317.6 442.2,323.6 436.2,323.6" fill="rgb(0,180,0)"/>
<polygon points="442.2,317.6 448.2,317.6 448.2,323.6 442.2,323.6" fill="rgb(16,0,0)"/>
<polygon points="448.2,317.6 454.2,317.6 454.2,323.6 448.2,323.6" fill="rgb(116,0,0)"/>
<polygon points="454.2,317.6 460.2,317.6 460.2,323.6 454.2,323.6" fill="rgb(92,0,0)"/>
<polygon points="460.2,317.6 466.2,317.6 466.2,323.6 460.2,323.6" fill="rgb(0,45,0)"/>
<polygon points="466.2,317.6 472.2,317.6 472.2,323.6 466.2,323.6" fill="rgb(0,80,0)"/>
<polygon points="472.2,317.6 478.2,317.6 478.2,323.6 472.2,323.6" fill="rgb(0,213,0)"/>
<polygon points="478.2,317.6 484.2,317.6 484.2,323.6 478.2,323.6" fill="rgb(0,160,0)"/>
<polygon points="484.2,317.6 490.2,317.6 490.2,323.6 484.2,323.6" fill="rgb(220,0,0)"/>
<polygon points="490.2,317.6 496.2,317.6 496.2,323.6 490.2,323.6" fill="rgb(176,0,0)"/>
<polygon points="496.2,317.6 502.2,317.6 502.2,323.6 496.2,323.6" fill="rgb(186,0,0)"/>
<polygon points="502.2,317.6 508.2,317.6 508.2,323.6 502.2,323.6" fill="rgb(0,72,0)"/>
<polygon points="508.2,317.6 514.2,317.6 514.2,323.6 508.2,323.6" fill="rgb(0,137,0)"/>
<polygon points="192.2,323.6 200.2,323.6 200.2,329.6 192.2,329.6" fill="rgb(127,230,0)"/><text xml:space="preserve" x="196.2" y="329.433" font-family="Calibri" font-size="7.5" fill="rgb(0,0,0)" text-anchor="middle">2</text>
<polygon points="200.2,323.6 208.2,323.6 208.2,329.6 200.2,329.6" fill="rgb(205,0,0)"/><text xml:space="preserve" x="204.2" y="329.433" font-family="Calibri" font-size="7.5" fill="rgb(255,255,255)" text-anchor="middle">5</text>
<polygon points="208.2,323.6 216.2,323.6 216.2,329.6 208.2,329.6" fill="rgb(127,230,0)"/><text xml:space="preserve" x="212.2" y="329.433" font-family="Calibri" font-size="7.5" fill="rgb(0,0,0)" text-anchor="middle">2</text>
<polygon points="216.2,323.6 224.2,323.6 224.2,329.6 216.2,329.6" fill="rgb(255,255,0)"/><text xml:space="preserve" x="220.2" y="329.433" font-family="Calibri" font-size="7.5" fill="rgb(0,0,0)" text-anchor="middle">3</text>
<polygon points="224.2,323.6 232.2,323.6 232.2,329.6 224.2,329.6" fill="rgb(255,255,0)"/><text xml:space="preserve" x="228.2" y="329.433" font-family="Calibri" font-size="7.5" fill="rgb(0,0,0)" text-anchor="middle">3</text>
<polygon points="242.2,323.6 248.2,323.6 248.2,329.6 242.2,329.6" fill="rgb(0,164,0)"/>
<polygon points="248.2,323.6 254.2,323.6 254.2,329.6 248.2,329.6" fill="rgb(27,0,0)"/>
<polygon points="254.2,323.6 260.2,323.6 260.2,329.6 254.2,329.6" fill="rgb(0,84,0)"/>
<polygon points="260.2,323.6 266.2,323.6 266.2,329.6 260.2,329.6" fill="rgb(115,0,0)"/>
<polygon points="266.2,323.6 272.2,323.6 272.2,329.6 266.2,329.6" fill="rgb(61,0,0)"/>
<polygon points="272.2,323.6 278.2,323.6 278.2,329.6 272.2,329.6" fill="rgb(2,0,0)"/>
<polygon points="278.2,323.6 284.2,323.6 284.2,329.6 278.2,329.6" fill="rgb(41,0,0)"/>
<polygon points="284.2,323.6 290.2,323.6 290.2,329.6 284.2,329.6" fill="rgb(0,182,0)"/>
<polygon points="290.2,323.6 296.2,323.6 296.2,329.6 290.2,329.6" fill="rgb(0,45,0)"/>
<polygon points="296.2,323.6 302.2,323.6 302.2,329.6 296.2,329.6" fill="rgb(165,0,0)"/>
<polygon points="302.2,323.6 308.2,323.6 308.2,329.6 302.2,329.6" fill="rgb(224,0,0)"/>
<polygon points="308.2,323.6 314.2,323.6 314.2,329.6 308.2,329.6" fill="rgb(107,0,0)"/>
<polygon points="314.2,323.6 320.2,323.6 320.2,329.6 314.2,329.6" fill="rgb(0,105,0)"/>
<polygon points="320.2,323.6 326.2,323.6 326.2,329.6 320.2,329.6" fill="rgb(0,164,0)"/>
<polygon points="336.2,323.6 342.2,323.6 342.2,329.6 336.2,329.6" fill="rgb(0,31,0)"/>
<polygon points="342.2,323.6 348.2,323.6 348.2,329.6 342.2,329.6" fill="rgb(0,16,0)"/>
<polygon points="348.2,323.6 354.2,323.6 354.2,329.6 348.2,329.6" fill="rgb(56,0,0)"/>
<polygon points="354.2,323.6 360.2,323.6 360.2,329.6 354.2,329.6" fill="rgb(58,0,0)"/>
<polygon points="360.2,323.6 366.2,323.6 366.2,329.6 360.2,329.6" fill="rgb(0,10,0)"/>
<polygon points="366.2,323.6 372.2,323.6 372.2,329.6 366.2,329.6" fill="rgb(0,83,0)"/>
<polygon points="372.2,323.6 378.2,323.6 378.2,329.6 372.2,329.6" fill="rgb(26,0,0)"/>
<polygon points="378.2,323.6 384.2,323.6 384.2,329.6 378.2,329.6" fill="rgb(0,19,0)"/>
<polygon points="384.2,323.6 390.2,323.6 390.2,329.6 384.2,329.6" fill="rgb(41,0,0)"/>
<polygon points="390.2,323.6 396.2,323.6 396.2,329.6 390.2,329.6" fill="rgb(52,0,0)"/>
<polygon points="396.2,323.6 402.2,323.6 402.2,329.6 396.2,329.6" fill="rgb(0,19,0)"/>
<polygon points="402.2,323.6 408.2,323.6 408.2,329.6 402.2,329.6" fill="rgb(39,0,0)"/>
<polygon points="408.2,323.6 414.2,323.6 414.2,329.6 408.2,329.6" fill="rgb(0,36,0)"/>
<polygon points="414.2,323.6 420.2,323.6 420.2,329.6 414.2,329.6" fill="rgb(0,56,0)"/>
<polygon points="430.2,323.6 436.2,323.6 436.2,329.6 430.2,329.6" fill="rgb(0,89,0)"/>
<polygon points="436.2,323.6 442.2,323.6 442.2,329.6 436.2,329.6" fill="rgb(20,0,0)"/>
<polygon points="442.2,323.6 448.2,323.6 448.2,329.6 442.2,329.6" fill="rgb(0,0,0)"/>
<polygon points="448.2,323.6 454.2,323.6 454.2,329.6 448.2,329.6" fill="rgb(71,0,0)"/>
<polygon points="454.2,323.6 460.2,323.6 460.2,329.6 454.2,329.6" fill="rgb(0,30,0)"/>
<polygon points="460.2,323.6 466.2,323.6 466.2,329.6 460.2,329.6" fill="rgb(24,0,0)"/>
<polygon points="466.2,323.6 472.2,323.6 472.2,329.6 466.2,329.6" fill="rgb(1,0,0)"/>
<polygon points="472.2,323.6 478.2,323.6 478.2,329.6 472.2,329.6" fill="rgb(0,69,0)"/>
<polygon points="478.2,323.6 484.2,323.6 484.2,329.6 478.2,329.6" fill="rgb(0,148,0)"/>
<polygon points="484.2,323.6 490.2,323.6 490.2,329.6 484.2,329.6" fill="rgb(0,3,0)"/>
<polygon points="490.2,323.6 496.2,323.6 496.2,329.6 490.2,329.6" fill="rgb(255,0,0)"/>
<polygon points="496.2,323.6 502.2,323.6 502.2,329.6 496.2,329.6" fill="rgb(153,0,0)"/>
<polygon points="502.2,323.6 508.2,323.6 508.2,329.6 502.2,329.6" fill="rgb(0,116,0)"/>
<polygon points="508.2,323.6 514.2,323.6 514.2,329.6 508.2,329.6" fill="rgb(0,82,0)"/>
<polygon points="192.2,329.6 200.2,329.6 200.2,335.6 192.2,335.6" fill="rgb(127,230,0)"/><text xml:space="preserve" x="196.2" y="335.433" font-family="Calibri" font-size="7.5" fill="rgb(0,0,0)" text-anchor="middle">2</text>
<polygon points="200.2,329.6 208.2,329.6 208.2,335.6 200.2,335.6" fill="rgb(205,0,0)"/><text xml:space="preserve" x="204.2" y="335.433" font-family="Calibri" font-size="7.5" fill="rgb(255,255,255)" text-anchor="middle">5</text>
<polygon points="208.2,329.6 216.2,329.6 216.2,335.6 208.2,335.6" fill="rgb(127,230,0)"/><text xml:space="preserve" x="212.2" y="335.433" font-family="Calibri" font-size="7.5" fill="rgb(0,0,0)" text-anchor="middle">2</text>
<polygon points="216.2,329.6 224.2,329.6 224.2,335.6 216.2,335.6" fill="rgb(255,255,0)"/><text xml:space="preserve" x="220.2" y="335.433" font-family="Calibri" font-size="7.5" fill="rgb(0,0,0)" text-anchor="middle">3</text>
<polygon points="224.2,329.6 232.2,329.6 232.2,335.6 224.2,335.6" fill="rgb(255,255,0)"/><text xml:space="preserve" x="228.2" y="335.433" font-family="Calibri" font-size="7.5" fill="rgb(0,0,0)" text-anchor="middle">3</text>
<polygon points="242.2,329.6 248.2,329.6 248.2,335.6 242.2,335.6" fill="rgb(0,99,0)"/>
<polygon points="248.2,329.6 254.2,329.6 254.2,335.6 248.2,335.6" fill="rgb(0,76,0)"/>
<polygon points="254.2,329.6 260.2,329.6 260.2,335.6 254.2,335.6" fill="rgb(124,0,0)"/>
<polygon points="260.2,329.6 266.2,329.6 266.2,335.6 260.2,335.6" fill="rgb(60,0,0)"/>
<polygon points="266.2,329.6 272.2,329.6 272.2,335.6 266.2,335.6" fill="rgb(8,0,0)"/>
<polygon points="272.2,329.6 278.2,329.6 278.2,335.6 272.2,335.6" fill="rgb(0,35,0)"/>
<polygon points="278.2,329.6 284.2,329.6 284.2,335.6 278.2,335.6" fill="rgb(17,0,0)"/>
<polygon points="284.2,329.6 290.2,329.6 290.2,335.6 284.2,335.6" fill="rgb(0,132,0)"/>
<polygon points="290.2,329.6 296.2,329.6 296.2,335.6 290.2,335.6" fill="rgb(0,98,0)"/>
<polygon points="296.2,329.6 302.2,329.6 302.2,335.6 296.2,335.6" fill="rgb(103,0,0)"/>
<polygon points="302.2,329.6 308.2,329.6 308.2,335.6 302.2,335.6" fill="rgb(169,0,0)"/>
<polygon points="308.2,329.6 314.2,329.6 314.2,335.6 308.2,335.6" fill="rgb(152,0,0)"/>
<polygon points="314.2,329.6 320.2,329.6 320.2,335.6 314.2,335.6" fill="rgb(0,86,0)"/>
<polygon points="320.2,329.6 326.2,329.6 326.2,335.6 320.2,335.6" fill="rgb(0,108,0)"/>
<polygon points="336.2,329.6 342.2,329.6 342.2,335.6 336.2,335.6" fill="rgb(1,0,0)"/>
<polygon points="342.2,329.6 348.2,329.6 348.2,335.6 342.2,335.6" fill="rgb(0,16,0)"/>
<polygon points="348.2,329.6 354.2,329.6 354.2,335.6 348.2,335.6" fill="rgb(23,0,0)"/>
<polygon points="354.2,329.6 360.2,329.6 360.2,335.6 354.2,335.6" fill="rgb(0,34,0)"/>
<polygon points="360.2,329.6 366.2,329.6 366.2,335.6 360.2,335.6" fill="rgb(0,39,0)"/>
<polygon points="366.2,329.6 372.2,329.6 372.2,335.6 366.2,335.6" fill="rgb(35,0,0)"/>
<polygon points="372.2,329.6 378.2,329.6 378.2,335.6 372.2,335.6" fill="rgb(30,0,0)"/>
<polygon points="378.2,329.6 384.2,329.6 384.2,335.6 378.2,335.6" fill="rgb(17,0,0)"/>
<polygon points="384.2,329.6 390.2,329.6 390.2,335.6 384.2,335.6" fill="rgb(0,68,0)"/>
<polygon points="390.2,329.6 396.2,329.6 396.2,335.6 390.2,335.6" fill="rgb(0,33,0)"/>
<polygon points="396.2,329.6 402.2,329.6 402.2,335.6 396.2,335.6" fill="rgb(0,97,0)"/>
<polygon points="402.2,329.6 408.2,329.6 408.2,335.6 402.2,335.6" fill="rgb(9,0,0)"/>
<polygon points="408.2,329.6 414.2,329.6 414.2,335.6 408.2,335.6" fill="rgb(100,0,0)"/>
<polygon points="414.2,329.6 420.2,329.6 420.2,335.6 414.2,335.6" fill="rgb(71,0,0)"/>
<polygon points="430.2,329.6 436.2,329.6 436.2,335.6 430.2,335.6" fill="rgb(0,57,0)"/>
<polygon points="436.2,329.6 442.2,329.6 442.2,335.6 436.2,335.6" fill="rgb(0,21,0)"/>
<polygon points="442.2,329.6 448.2,329.6 448.2,335.6 442.2,335.6" fill="rgb(29,0,0)"/>
<polygon points="448.2,329.6 454.2,329.6 454.2,335.6 448.2,335.6" fill="rgb(63,0,0)"/>
<polygon points="454.2,329.6 460.2,329.6 460.2,335.6 454.2,335.6" fill="rgb(1,0,0)"/>
<polygon points="460.2,329.6 466.2,329.6 466.2,335.6 460.2,335.6" fill="rgb(0,1,0)"/>
<polygon points="466.2,329.6 472.2,329.6 472.2,335.6 466.2,335.6" fill="rgb(0,14,0)"/>
<polygon points="472.2,329.6 478.2,329.6 478.2,335.6 472.2,335.6" fill="rgb(0,203,0)"/>
<polygon points="478.2,329.6 484.2,329.6 484.2,335.6 478.2,335.6" fill="rgb(0,255,0)"/>
<polygon points="484.2,329.6 490.2,329.6 490.2,335.6 484.2,335.6" fill="rgb(26,0,0)"/>
<polygon points="490.2,329.6 496.2,329.6 496.2,335.6 490.2,335.6" fill="rgb(255,0,0)"/>
<polygon points="496.2,329.6 502.2,329.6 502.2,335.6 496.2,335.6" fill="rgb(248,0,0)"/>
<polygon points="502.2,329.6 508.2,329.6 508.2,335.6 502.2,335.6" fill="rgb(42,0,0)"/>
<polygon points="508.2,329.6 514.2,329.6 514.2,335.6 508.2,335.6" fill="rgb(0,132,0)"/>
<polygon points="192.2,335.6 200.2,335.6 200.2,341.6 192.2,341.6" fill="rgb(127,230,0)"/><text xml:space="preserve" x="196.2" y="341.433" font-family="Calibri" font-size="7.5" fill="rgb(0,0,0)" text-anchor="middle">2</text>
<polygon points="200.2,335.6 208.2,335.6 208.2,341.6 200.2,341.6" fill="rgb(205,0,0)"/><text xml:space="preserve" x="204.2" y="341.433" font-family="Calibri" font-size="7.5" fill="rgb(255,255,255)" text-anchor="middle">5</text>
<polygon points="208.2,335.6 216.2,335.6 216.2,341.6 208.2,341.6" fill="rgb(127,230,0)"/><text xml:space="preserve" x="212.2" y="341.433" font-family="Calibri" font-size="7.5" fill="rgb(0,0,0)" text-anchor="middle">2</text>
<polygon points="216.2,335.6 224.2,335.6 224.2,341.6 216.2,341.6" fill="rgb(255,255,0)"/><text xml:space="preserve" x="220.2" y="341.433" font-family="Calibri" font-size="7.5" fill="rgb(0,0,0)" text-anchor="middle">3</text>
<polygon points="224.2,335.6 232.2,335.6 232.2,341.6 224.2,341.6" fill="rgb(255,255,0)"/><text xml:space="preserve" x="228.2" y="341.433" font-family="Calibri" font-size="7.5" fill="rgb(0,0,0)" text-anchor="middle">3</text>
<polygon points="242.2,335.6 248.2,335.6 248.2,341.6 242.2,341.6" fill="rgb(3,0,0)"/>
<polygon points="248.2,335.6 254.2,335.6 254.2,341.6 248.2,341.6" fill="rgb(0,54,0)"/>
<polygon points="254.2,335.6 260.2,335.6 260.2,341.6 254.2,341.6" fill="rgb(3,0,0)"/>
<polygon points="260.2,335.6 266.2,335.6 266.2,341.6 260.2,341.6" fill="rgb(54,0,0)"/>
<polygon points="266.2,335.6 272.2,335.6 272.2,341.6 266.2,341.6" fill="rgb(62,0,0)"/>
<polygon points="272.2,335.6 278.2,335.6 278.2,341.6 272.2,341.6" fill="rgb(0,52,0)"/>
<polygon points="278.2,335.6 284.2,335.6 284.2,341.6 278.2,341.6" fill="rgb(0,17,0)"/>
<polygon points="284.2,335.6 290.2,335.6 290.2,341.6 284.2,341.6" fill="rgb(0,75,0)"/>
<polygon points="290.2,335.6 296.2,335.6 296.2,341.6 290.2,341.6" fill="rgb(0,108,0)"/>
<polygon points="296.2,335.6 302.2,335.6 302.2,341.6 296.2,341.6" fill="rgb(184,0,0)"/>
<polygon points="302.2,335.6 308.2,335.6 308.2,341.6 302.2,341.6" fill="rgb(209,0,0)"/>
<polygon points="308.2,335.6 314.2,335.6 314.2,341.6 308.2,341.6" fill="rgb(117,0,0)"/>
<polygon points="314.2,335.6 320.2,335.6 320.2,341.6 314.2,341.6" fill="rgb(0,234,0)"/>
<polygon points="320.2,335.6 326.2,335.6 326.2,341.6 320.2,341.6" fill="rgb(0,93,0)"/>
<polygon points="336.2,335.6 342.2,335.6 342.2,341.6 336.2,341.6" fill="rgb(4,0,0)"/>
<polygon points="342.2,335.6 348.2,335.6 348.2,341.6 342.2,341.6" fill="rgb(3,0,0)"/>
<polygon points="348.2,335.6 354.2,335.6 354.2,341.6 348.2,341.6" fill="rgb(31,0,0)"/>
<polygon points="354.2,335.6 360.2,335.6 360.2,341.6 354.2,341.6" fill="rgb(0,44,0)"/>
<polygon points="360.2,335.6 366.2,335.6 366.2,341.6 360.2,341.6" fill="rgb(0,26,0)"/>
<polygon points="366.2,335.6 372.2,335.6 372.2,341.6 366.2,341.6" fill="rgb(31,0,0)"/>
<polygon points="372.2,335.6 378.2,335.6 378.2,341.6 372.2,341.6" fill="rgb(0,0,0)"/>
<polygon points="378.2,335.6 384.2,335.6 384.2,341.6 378.2,341.6" fill="rgb(0,36,0)"/>
<polygon points="384.2,335.6 390.2,335.6 390.2,341.6 384.2,341.6" fill="rgb(0,57,0)"/>
<polygon points="390.2,335.6 396.2,335.6 396.2,341.6 390.2,341.6" fill="rgb(0,4,0)"/>
<polygon points="396.2,335.6 402.2,335.6 402.2,341.6 396.2,341.6" fill="rgb(120,0,0)"/>
<polygon points="402.2,335.6 408.2,335.6 408.2,341.6 402.2,341.6" fill="rgb(22,0,0)"/>
<polygon points="408.2,335.6 414.2,335.6 414.2,341.6 408.2,341.6" fill="rgb(0,43,0)"/>
<polygon points="414.2,335.6 420.2,335.6 420.2,341.6 414.2,341.6" fill="rgb(0,0,0)"/>
<polygon points="430.2,335.6 436.2,335.6 436.2,341.6 430.2,341.6" fill="rgb(13,0,0)"/>
<polygon points="436.2,335.6 442.2,335.6 442.2,341.6 436.2,341.6" fill="rgb(0,81,0)"/>
<polygon points="442.2,335.6 448.2,335.6 448.2,341.6 442.2,341.6" fill="rgb(23,0,0)"/>
<polygon points="448.2,335.6 454.2,335.6 454.2,341.6 448.2,341.6" fill="rgb(30,0,0)"/>
<polygon points="454.2,335.6 460.2,335.6 460.2,341.6 454.2,341.6" fill="rgb(43,0,0)"/>
<polygon points="460.2,335.6 466.2,335.6 466.2,341.6 460.2,341.6" fill="rgb(18,0,0)"/>
<polygon points="466.2,335.6 472.2,335.6 472.2,341.6 466.2,341.6" fill="rgb(0,47,0)"/>
<polygon points="472.2,335.6 478.2,335.6 478.2,341.6 472.2,341.6" fill="rgb(0,175,0)"/>
<polygon points="478.2,335.6 484.2,335.6 484.2,341.6 478.2,341.6" fill="rgb(0,255,0)"/>
<polygon points="484.2,335.6 490.2,335.6 490.2,341.6 484.2,341.6" fill="rgb(0,22,0)"/>
<polygon points="490.2,335.6 496.2,335.6 496.2,341.6 490.2,341.6" fill="rgb(157,0,0)"/>
<polygon points="496.2,335.6 502.2,335.6 502.2,341.6 496.2,341.6" fill="rgb(240,0,0)"/>
<polygon points="502.2,335.6 508.2,335.6 508.2,341.6 502.2,341.6" fill="rgb(83,0,0)"/>
<polygon points="508.2,335.6 514.2,335.6 514.2,341.6 508.2,341.6" fill="rgb(7,0,0)"/>
<polygon points="192.2,341.6 200.2,341.6 200.2,347.6 192.2,347.6" fill="rgb(127,230,0)"/><text xml:space="preserve" x="196.2" y="347.433" font-family="Calibri" font-size="7.5" fill="rgb(0,0,0)" text-anchor="middle">2</text>
<polygon points="200.2,341.6 208.2,341.6 208.2,347.6 200.2,347.6" fill="rgb(205,0,0)"/><text xml:space="preserve" x="204.2" y="347.433" font-family="Calibri" font-size="7.5" fill="rgb(255,255,255)" text-anchor="middle">5</text>
<polygon points="208.2,341.6 216.2,341.6 216.2,347.6 208.2,347.6" fill="rgb(127,230,0)"/><text xml:space="preserve" x="212.2" y="347.433" font-family="Calibri" font-size="7.5" fill="rgb(0,0,0)" text-anchor="middle">2</text>
<polygon points="216.2,341.6 224.2,341.6 224.2,347.6 216.2,347.6" fill="rgb(255,255,0)"/><text xml:space="preserve" x="220.2" y="347.433" font-family="Calibri" font-size="7.5" fill="rgb(0,0,0)" text-anchor="middle">3</text>
<polygon points="224.2,341.6 232.2,341.6 232.2,347.6 224.2,347.6" fill="rgb(255,255,0)"/><text xml:space="preserve" x="228.2" y="347.433" font-family="Calibri" font-size="7.5" fill="rgb(0,0,0)" text-anchor="middle">3</text>
<polygon points="242.2,341.6 248.2,341.6 248.2,347.6 242.2,347.6" fill="rgb(0,108,0)"/>
<polygon points="248.2,341.6 254.2,341.6 254.2,347.6 248.2,347.6" fill="rgb(0,89,0)"/>
<polygon points="254.2,341.6 260.2,341.6 260.2,347.6 254.2,347.6" fill="rgb(29,0,0)"/>
<polygon points="260.2,341.6 266.2,341.6 266.2,347.6 260.2,347.6" fill="rgb(131,0,0)"/>
<polygon points="266.2,341.6 272.2,341.6 272.2,347.6 266.2,347.6" fill="rgb(73,0,0)"/>
<polygon points="272.2,341.6 278.2,341.6 278.2,347.6 272.2,347.6" fill="rgb(14,0,0)"/>
<polygon points="278.2,341.6 284.2,341.6 284.2,347.6 278.2,347.6" fill="rgb(0,51,0)"/>
<polygon points="284.2,341.6 290.2,341.6 290.2,347.6 284.2,347.6" fill="rgb(0,220,0)"/>
<polygon points="290.2,341.6 296.2,341.6 296.2,347.6 290.2,347.6" fill="rgb(0,17,0)"/>
<polygon points="296.2,341.6 302.2,341.6 302.2,347.6 296.2,347.6" fill="rgb(255,0,0)"/>
<polygon points="302.2,341.6 308.2,341.6 308.2,347.6 302.2,347.6" fill="rgb(205,0,0)"/>
<polygon points="308.2,341.6 314.2,341.6 314.2,347.6 308.2,347.6" fill="rgb(126,0,0)"/>
<polygon points="314.2,341.6 320.2,341.6 320.2,347.6 314.2,347.6" fill="rgb(0,115,0)"/>
<polygon points="320.2,341.6 326.2,341.6 326.2,347.6 320.2,347.6" fill="rgb(0,255,0)"/>
<polygon points="336.2,341.6 342.2,341.6 342.2,347.6 336.2,347.6" fill="rgb(69,0,0)"/>
<polygon points="342.2,341.6 348.2,341.6 348.2,347.6 342.2,347.6" fill="rgb(0,25,0)"/>
<polygon points="348.2,341.6 354.2,341.6 354.2,347.6 348.2,347.6" fill="rgb(0,120,0)"/>
<polygon points="354.2,341.6 360.2,341.6 360.2,347.6 354.2,347.6" fill="rgb(60,0,0)"/>
<polygon points="360.2,341.6 366.2,341.6 366.2,347.6 360.2,347.6" fill="rgb(0,48,0)"/>
<polygon points="366.2,341.6 372.2,341.6 372.2,347.6 366.2,347.6" fill="rgb(0,0,0)"/>
<polygon points="372.2,341.6 378.2,341.6 378.2,347.6 372.2,347.6" fill="rgb(64,0,0)"/>
<polygon points="378.2,341.6 384.2,341.6 384.2,347.6 378.2,347.6" fill="rgb(0,8,0)"/>
<polygon points="384.2,341.6 390.2,341.6 390.2,347.6 384.2,347.6" fill="rgb(0,8,0)"/>
<polygon points="390.2,341.6 396.2,341.6 396.2,347.6 390.2,347.6" fill="rgb(38,0,0)"/>
<polygon points="396.2,341.6 402.2,341.6 402.2,347.6 396.2,347.6" fill="rgb(55,0,0)"/>
<polygon points="402.2,341.6 408.2,341.6 408.2,347.6 402.2,347.6" fill="rgb(0,20,0)"/>
<polygon points="408.2,341.6 414.2,341.6 414.2,347.6 408.2,347.6" fill="rgb(0,67,0)"/>
<polygon points="414.2,341.6 420.2,341.6 420.2,347.6 414.2,347.6" fill="rgb(9,0,0)"/>
<polygon points="430.2,341.6 436.2,341.6 436.2,347.6 430.2,347.6" fill="rgb(0,67,0)"/>
<polygon points="436.2,341.6 442.2,341.6 442.2,347.6 436.2,347.6" fill="rgb(0,155,0)"/>
<polygon points="442.2,341.6 448.2,341.6 448.2,347.6 442.2,347.6" fill="rgb(16,0,0)"/>
<polygon points="448.2,341.6 454.2,341.6 454.2,347.6 448.2,347.6" fill="rgb(82,0,0)"/>
<polygon points="454.2,341.6 460.2,341.6 460.2,347.6 454.2,347.6" fill="rgb(58,0,0)"/>
<polygon points="460.2,341.6 466.2,341.6 466.2,347.6 460.2,347.6" fill="rgb(4,0,0)"/>
<polygon points="466.2,341.6 472.2,341.6 472.2,347.6 466.2,347.6" fill="rgb(60,0,0)"/>
<polygon points="472.2,341.6 478.2,341.6 478.2,347.6 472.2,347.6" fill="rgb(0,233,0)"/>
<polygon points="478.2,341.6 484.2,341.6 484.2,347.6 478.2,347.6" fill="rgb(0,148,0)"/>
<polygon points="484.2,341.6 490.2,341.6 490.2,347.6 484.2,347.6" fill="rgb(95,0,0)"/>
<polygon points="490.2,341.6 496.2,341.6 496.2,347.6 490.2,347.6" fill="rgb(233,0,0)"/>
<polygon points="496.2,341.6 502.2,341.6 502.2,347.6 496.2,347.6" fill="rgb(89,0,0)"/>
<polygon points="502.2,341.6 508.2,341.6 508.2,347.6 502.2,347.6" fill="rgb(0,75,0)"/>
<polygon points="508.2,341.6 514.2,341.6 514.2,347.6 508.2,347.6" fill="rgb(38,0,0)"/>
<polygon points="192.2,347.6 200.2,347.6 200.2,353.6 192.2,353.6" fill="rgb(127,230,0)"/><text xml:space="preserve" x="196.2" y="353.433" font-family="Calibri" font-size="7.5" fill="rgb(0,0,0)" text-anchor="middle">2</text>
<polygon points="200.2,347.6 208.2,347.6 208.2,353.6 200.2,353.6" fill="rgb(205,0,0)"/><text xml:space="preserve" x="204.2" y="353.433" font-family="Calibri" font-size="7.5" fill="rgb(255,255,255)" text-anchor="middle">5</text>
<polygon points="208.2,347.6 216.2,347.6 216.2,353.6 208.2,353.6" fill="rgb(127,230,0)"/><text xml:space="preserve" x="212.2" y="353.433" font-family="Calibri" font-size="7.5" fill="rgb(0,0,0)" text-anchor="middle">2</text>
<polygon points="216.2,347.6 224.2,347.6 224.2,353.6 216.2,353.6" fill="rgb(255,255,0)"/><text xml:space="preserve" x="220.2" y="353.433" font-family="Calibri" font-size="7.5" fill="rgb(0,0,0)" text-anchor="middle">3</text>
<polygon points="224.2,347.6 232.2,347.6 232.2,353.6 224.2,353.6" fill="rgb(255,255,0)"/><text xml:space="preserve" x="228.2" y="353.433" font-family="Calibri" font-size="7.5" fill="rgb(0,0,0)" text-anchor="middle">3</text>
<polygon points="242.2,347.6 248.2,347.6 248.2,353.6 242.2,353.6" fill="rgb(0,17,0)"/>
<polygon points="248.2,347.6 254.2,347.6 254.2,353.6 248.2,353.6" fill="rgb(19,0,0)"/>
<polygon points="254.2,347.6 260.2,347.6 260.2,353.6 254.2,353.6" fill="rgb(0,66,0)"/>
<polygon points="260.2,347.6 266.2,347.6 266.2,353.6 260.2,353.6" fill="rgb(123,0,0)"/>
<polygon points="266.2,347.6 272.2,347.6 272.2,353.6 266.2,353.6" fill="rgb(0,20,0)"/>
<polygon points="272.2,347.6 278.2,347.6 278.2,353.6 272.2,353.6" fill="rgb(0,29,0)"/>
<polygon points="278.2,347.6 284.2,347.6 284.2,353.6 278.2,353.6" fill="rgb(0,9,0)"/>
<polygon points="284.2,347.6 290.2,347.6 290.2,353.6 284.2,353.6" fill="rgb(0,201,0)"/>
<polygon points="290.2,347.6 296.2,347.6 296.2,353.6 290.2,353.6" fill="rgb(0,23,0)"/>
<polygon points="296.2,347.6 302.2,347.6 302.2,353.6 296.2,353.6" fill="rgb(44,0,0)"/>
<polygon points="302.2,347.6 308.2,347.6 308.2,353.6 302.2,353.6" fill="rgb(147,0,0)"/>
<polygon points="308.2,347.6 314.2,347.6 314.2,353.6 308.2,353.6" fill="rgb(95,0,0)"/>
<polygon points="314.2,347.6 320.2,347.6 320.2,353.6 314.2,353.6" fill="rgb(0,19,0)"/>
<polygon points="320.2,347.6 326.2,347.6 326.2,353.6 320.2,353.6" fill="rgb(0,42,0)"/>
<polygon points="336.2,347.6 342.2,347.6 342.2,353.6 336.2,353.6" fill="rgb(38,0,0)"/>
<polygon points="342.2,347.6 348.2,347.6 348.2,353.6 342.2,353.6" fill="rgb(0,11,0)"/>
<polygon points="348.2,347.6 354.2,347.6 354.2,353.6 348.2,353.6" fill="rgb(0,44,0)"/>
<polygon points="354.2,347.6 360.2,347.6 360.2,353.6 354.2,353.6" fill="rgb(23,0,0)"/>
<polygon points="360.2,347.6 366.2,347.6 366.2,353.6 360.2,353.6" fill="rgb(16,0,0)"/>
<polygon points="366.2,347.6 372.2,347.6 372.2,353.6 366.2,353.6" fill="rgb(1,0,0)"/>
<polygon points="372.2,347.6 378.2,347.6 378.2,353.6 372.2,353.6" fill="rgb(0,24,0)"/>
<polygon points="378.2,347.6 384.2,347.6 384.2,353.6 378.2,353.6" fill="rgb(65,0,0)"/>
<polygon points="384.2,347.6 390.2,347.6 390.2,353.6 384.2,353.6" fill="rgb(0,32,0)"/>
<polygon points="390.2,347.6 396.2,347.6 396.2,353.6 390.2,353.6" fill="rgb(0,40,0)"/>
<polygon points="396.2,347.6 402.2,347.6 402.2,353.6 396.2,353.6" fill="rgb(0,10,0)"/>
<polygon points="402.2,347.6 408.2,347.6 408.2,353.6 402.2,353.6" fill="rgb(55,0,0)"/>
<polygon points="408.2,347.6 414.2,347.6 414.2,353.6 408.2,353.6" fill="rgb(53,0,0)"/>
<polygon points="414.2,347.6 420.2,347.6 420.2,353.6 414.2,353.6" fill="rgb(0,91,0)"/>
<polygon points="430.2,347.6 436.2,347.6 436.2,353.6 430.2,353.6" fill="rgb(11,0,0)"/>
<polygon points="436.2,347.6 442.2,347.6 442.2,353.6 436.2,353.6" fill="rgb(0,9,0)"/>
<polygon points="442.2,347.6 448.2,347.6 448.2,353.6 442.2,353.6" fill="rgb(0,13,0)"/>
<polygon points="448.2,347.6 454.2,347.6 454.2,353.6 448.2,353.6" fill="rgb(111,0,0)"/>
<polygon points="454.2,347.6 460.2,347.6 460.2,353.6 454.2,353.6" fill="rgb(0,60,0)"/>
<polygon points="460.2,347.6 466.2,347.6 466.2,353.6 460.2,353.6" fill="rgb(0,14,0)"/>
<polygon points="466.2,347.6 472.2,347.6 472.2,353.6 466.2,353.6" fill="rgb(0,25,0)"/>
<polygon points="472.2,347.6 478.2,347.6 478.2,353.6 472.2,353.6" fill="rgb(0,150,0)"/>
<polygon points="478.2,347.6 484.2,347.6 484.2,353.6 478.2,353.6" fill="rgb(0,175,0)"/>
<polygon points="484.2,347.6 490.2,347.6 490.2,353.6 484.2,353.6" fill="rgb(27,0,0)"/>
<polygon points="490.2,347.6 496.2,347.6 496.2,353.6 490.2,353.6" fill="rgb(255,0,0)"/>
<polygon points="496.2,347.6 502.2,347.6 502.2,353.6 496.2,353.6" fill="rgb(135,0,0)"/>
<polygon points="502.2,347.6 508.2,347.6 508.2,353.6 502.2,353.6" fill="rgb(0,45,0)"/>
<polygon points="508.2,347.6 514.2,347.6 514.2,353.6 508.2,353.6" fill="rgb(0,51,0)"/>
<polygon points="192.2,353.6 200.2,353.6 200.2,359.6 192.2,359.6" fill="rgb(127,230,0)"/><text xml:space="preserve" x="196.2" y="359.433" font-family="Calibri" font-size="7.5" fill="rgb(0,0,0)" text-anchor="middle">2</text>
<polygon points="200.2,353.6 208.2,353.6 208.2,359.6 200.2,359.6" fill="rgb(205,0,0)"/><text xml:space="preserve" x="204.2" y="359.433" font-family="Calibri" font-size="7.5" fill="rgb(255,255,255)" text-anchor="middle">5</text>
<polygon points="208.2,353.6 216.2,353.6 216.2,359.6 208.2,359.6" fill="rgb(127,230,0)"/><text xml:space="preserve" x="212.2" y="359.433" font-family="Calibri" font-size="7.5" fill="rgb(0,0,0)" text-anchor="middle">2</text>
<polygon points="216.2,353.6 224.2,353.6 224.2,359.6 216.2,359.6" fill="rgb(255,255,0)"/><text xml:space="preserve" x="220.2" y="359.433" font-family="Calibri" font-size="7.5" fill="rgb(0,0,0)" text-anchor="middle">3</text>
<polygon points="224.2,353.6 232.2,353.6 232.2,359.6 224.2,359.6" fill="rgb(255,255,0)"/><text xml:space="preserve" x="228.2" y="359.433" font-family="Calibri" font-size="7.5" fill="rgb(0,0,0)" text-anchor="middle">3</text>
<polygon points="242.2,353.6 248.2,353.6 248.2,359.6 242.2,359.6" fill="rgb(0,97,0)"/>
<polygon points="248.2,353.6 254.2,353.6 254.2,359.6 248.2,359.6" fill="rgb(35,0,0)"/>
<polygon points="254.2,353.6 260.2,353.6 260.2,359.6 254.2,359.6" fill="rgb(134,0,0)"/>
<polygon points="260.2,353.6 266.2,353.6 266.2,359.6 260.2,359.6" fill="rgb(11,0,0)"/>
<polygon points="266.2,353.6 272.2,353.6 272.2,359.6 266.2,359.6" fill="rgb(60,0,0)"/>
<polygon points="272.2,353.6 278.2,353.6 278.2,359.6 272.2,359.6" fill="rgb(0,59,0)"/>
<polygon points="278.2,353.6 284.2,353.6 284.2,359.6 278.2,359.6" fill="rgb(0,85,0)"/>
<polygon points="284.2,353.6 290.2,353.6 290.2,359.6 284.2,359.6" fill="rgb(0,170,0)"/>
<polygon points="290.2,353.6 296.2,353.6 296.2,359.6 290.2,359.6" fill="rgb(0,35,0)"/>
<polygon points="296.2,353.6 302.2,353.6 302.2,359.6 296.2,359.6" fill="rgb(220,0,0)"/>
<polygon points="302.2,353.6 308.2,353.6 308.2,359.6 302.2,359.6" fill="rgb(210,0,0)"/>
<polygon points="308.2,353.6 314.2,353.6 314.2,359.6 308.2,359.6" fill="rgb(100,0,0)"/>
<polygon points="314.2,353.6 320.2,353.6 320.2,359.6 314.2,359.6" fill="rgb(0,65,0)"/>
<polygon points="320.2,353.6 326.2,353.6 326.2,359.6 320.2,359.6" fill="rgb(0,255,0)"/>
<polygon points="336.2,353.6 342.2,353.6 342.2,359.6 336.2,359.6" fill="rgb(21,0,0)"/>
<polygon points="342.2,353.6 348.2,353.6 348.2,359.6 342.2,359.6" fill="rgb(0,13,0)"/>
<polygon points="348.2,353.6 354.2,353.6 354.2,359.6 348.2,359.6" fill="rgb(0,18,0)"/>
<polygon points="354.2,353.6 360.2,353.6 360.2,359.6 354.2,359.6" fill="rgb(27,0,0)"/>
<polygon points="360.2,353.6 366.2,353.6 366.2,359.6 360.2,359.6" fill="rgb(0,61,0)"/>
<polygon points="366.2,353.6 372.2,353.6 372.2,359.6 366.2,359.6" fill="rgb(38,0,0)"/>
<polygon points="372.2,353.6 378.2,353.6 378.2,359.6 372.2,359.6" fill="rgb(5,0,0)"/>
<polygon points="378.2,353.6 384.2,353.6 384.2,359.6 378.2,359.6" fill="rgb(165,0,0)"/>
<polygon points="384.2,353.6 390.2,353.6 390.2,359.6 384.2,359.6" fill="rgb(0,65,0)"/>
<polygon points="390.2,353.6 396.2,353.6 396.2,359.6 390.2,359.6" fill="rgb(28,0,0)"/>
<polygon points="396.2,353.6 402.2,353.6 402.2,359.6 396.2,359.6" fill="rgb(87,0,0)"/>
<polygon points="402.2,353.6 408.2,353.6 408.2,359.6 402.2,359.6" fill="rgb(0,49,0)"/>
<polygon points="408.2,353.6 414.2,353.6 414.2,359.6 408.2,359.6" fill="rgb(0,138,0)"/>
<polygon points="414.2,353.6 420.2,353.6 420.2,359.6 414.2,359.6" fill="rgb(0,28,0)"/>
<polygon points="430.2,353.6 436.2,353.6 436.2,359.6 430.2,359.6" fill="rgb(0,34,0)"/>
<polygon points="436.2,353.6 442.2,353.6 442.2,359.6 436.2,359.6" fill="rgb(0,204,0)"/>
<polygon points="442.2,353.6 448.2,353.6 448.2,359.6 442.2,359.6" fill="rgb(11,0,0)"/>
<polygon points="448.2,353.6 454.2,353.6 454.2,359.6 448.2,359.6" fill="rgb(99,0,0)"/>
<polygon points="454.2,353.6 460.2,353.6 460.2,359.6 454.2,359.6" fill="rgb(108,0,0)"/>
<polygon points="460.2,353.6 466.2,353.6 466.2,359.6 460.2,359.6" fill="rgb(14,0,0)"/>
<polygon points="466.2,353.6 472.2,353.6 472.2,359.6 466.2,359.6" fill="rgb(5,0,0)"/>
<polygon points="472.2,353.6 478.2,353.6 478.2,359.6 472.2,359.6" fill="rgb(0,122,0)"/>
<polygon points="478.2,353.6 484.2,353.6 484.2,359.6 478.2,359.6" fill="rgb(0,251,0)"/>
<polygon points="484.2,353.6 490.2,353.6 490.2,359.6 484.2,359.6" fill="rgb(17,0,0)"/>
<polygon points="490.2,353.6 496.2,353.6 496.2,359.6 490.2,359.6" fill="rgb(207,0,0)"/>
<polygon points="496.2,353.6 502.2,353.6 502.2,359.6 496.2,359.6" fill="rgb(204,0,0)"/>
<polygon points="502.2,353.6 508.2,353.6 508.2,359.6 502.2,359.6" fill="rgb(33,0,0)"/>
<polygon points="508.2,353.6 514.2,353.6 514.2,359.6 508.2,359.6" fill="rgb(0,89,0)"/>
<polygon points="192.2,359.6 200.2,359.6 200.2,365.6 192.2,365.6" fill="rgb(127,230,0)"/><text xml:space="preserve" x="196.2" y="365.433" font-family="Calibri" font-size="7.5" fill="rgb(0,0,0)" text-anchor="middle">2</text>
<polygon points="200.2,359.6 208.2,359.6 208.2,365.6 200.2,365.6" fill="rgb(205,0,0)"/><text xml:space="preserve" x="204.2" y="365.433" font-family="Calibri" font-size="7.5" fill="rgb(255,255,255)" text-anchor="middle">5</text>
<polygon points="208.2,359.6 216.2,359.6 216.2,365.6 208.2,365.6" fill="rgb(127,230,0)"/><text xml:space="preserve" x="212.2" y="365.433" font-family="Calibri" font-size="7.5" fill="rgb(0,0,0)" text-anchor="middle">2</text>
<polygon points="216.2,359.6 224.2,359.6 224.2,365.6 216.2,365.6" fill="rgb(255,255,0)"/><text xml:space="preserve" x="220.2" y="365.433" font-family="Calibri" font-size="7.5" fill="rgb(0,0,0)" text-anchor="middle">3</text>
<polygon points="224.2,359.6 232.2,359.6 232.2,365.6 224.2,365.6" fill="rgb(255,255,0)"/><text xml:space="preserve" x="228.2" y="365.433" font-family="Calibri" font-size="7.5" fill="rgb(0,0,0)" text-anchor="middle">3</text>
<polygon points="242.2,359.6 248.2,359.6 248.2,365.6 242.2,365.6" fill="rgb(0,65,0)"/>
<polygon points="248.2,359.6 254.2,359.6 254.2,365.6 248.2,365.6" fill="rgb(0,1,0)"/>
<polygon points="254.2,359.6 260.2,359.6 260.2,365.6 254.2,365.6" fill="rgb(41,0,0)"/>
<polygon points="260.2,359.6 266.2,359.6 266.2,365.6 260.2,365.6" fill="rgb(55,0,0)"/>
<polygon points="266.2,359.6 272.2,359.6 272.2,365.6 266.2,365.6" fill="rgb(0,19,0)"/>
<polygon points="272.2,359.6 278.2,359.6 278.2,365.6 272.2,365.6" fill="rgb(14,0,0)"/>
<polygon points="278.2,359.6 284.2,359.6 284.2,365.6 278.2,365.6" fill="rgb(0,24,0)"/>
<polygon points="284.2,359.6 290.2,359.6 290.2,365.6 284.2,365.6" fill="rgb(0,30,0)"/>
<polygon points="290.2,359.6 296.2,359.6 296.2,365.6 290.2,365.6" fill="rgb(0,43,0)"/>
<polygon points="296.2,359.6 302.2,359.6 302.2,365.6 296.2,365.6" fill="rgb(72,0,0)"/>
<polygon points="302.2,359.6 308.2,359.6 308.2,365.6 302.2,365.6" fill="rgb(165,0,0)"/>
<polygon points="308.2,359.6 314.2,359.6 314.2,365.6 308.2,365.6" fill="rgb(15,0,0)"/>
<polygon points="314.2,359.6 320.2,359.6 320.2,365.6 314.2,365.6" fill="rgb(0,119,0)"/>
<polygon points="320.2,359.6 326.2,359.6 326.2,365.6 320.2,365.6" fill="rgb(0,60,0)"/>
<polygon points="336.2,359.6 342.2,359.6 342.2,365.6 336.2,365.6" fill="rgb(82,0,0)"/>
<polygon points="342.2,359.6 348.2,359.6 348.2,365.6 342.2,365.6" fill="rgb(0,31,0)"/>
<polygon points="348.2,359.6 354.2,359.6 354.2,365.6 348.2,365.6" fill="rgb(0,9,0)"/>
<polygon points="354.2,359.6 360.2,359.6 360.2,365.6 354.2,365.6" fill="rgb(0,5,0)"/>
<polygon points="360.2,359.6 366.2,359.6 366.2,365.6 360.2,365.6" fill="rgb(0,9,0)"/>
<polygon points="366.2,359.6 372.2,359.6 372.2,365.6 366.2,365.6" fill="rgb(0,27,0)"/>
<polygon points="372.2,359.6 378.2,359.6 378.2,365.6 372.2,365.6" fill="rgb(0,0,0)"/>
<polygon points="378.2,359.6 384.2,359.6 384.2,365.6 378.2,365.6" fill="rgb(0,43,0)"/>
<polygon points="384.2,359.6 390.2,359.6 390.2,365.6 384.2,365.6" fill="rgb(0,52,0)"/>
<polygon points="390.2,359.6 396.2,359.6 396.2,365.6 390.2,365.6" fill="rgb(20,0,0)"/>
<polygon points="396.2,359.6 402.2,359.6 402.2,365.6 396.2,365.6" fill="rgb(23,0,0)"/>
<polygon points="402.2,359.6 408.2,359.6 408.2,365.6 402.2,365.6" fill="rgb(3,0,0)"/>
<polygon points="408.2,359.6 414.2,359.6 414.2,365.6 408.2,365.6" fill="rgb(52,0,0)"/>
<polygon points="414.2,359.6 420.2,359.6 420.2,365.6 414.2,365.6" fill="rgb(0,4,0)"/>
<polygon points="430.2,359.6 436.2,359.6 436.2,365.6 430.2,365.6" fill="rgb(0,141,0)"/>
<polygon points="436.2,359.6 442.2,359.6 442.2,365.6 436.2,365.6" fill="rgb(20,0,0)"/>
<polygon points="442.2,359.6 448.2,359.6 448.2,365.6 442.2,365.6" fill="rgb(93,0,0)"/>
<polygon points="448.2,359.6 454.2,359.6 454.2,365.6 448.2,365.6" fill="rgb(80,0,0)"/>
<polygon points="454.2,359.6 460.2,359.6 460.2,365.6 454.2,365.6" fill="rgb(0,12,0)"/>
<polygon points="460.2,359.6 466.2,359.6 466.2,365.6 460.2,365.6" fill="rgb(0,19,0)"/>
<polygon points="466.2,359.6 472.2,359.6 472.2,365.6 466.2,365.6" fill="rgb(0,19,0)"/>
<polygon points="472.2,359.6 478.2,359.6 478.2,365.6 472.2,365.6" fill="rgb(0,255,0)"/>
<polygon points="478.2,359.6 484.2,359.6 484.2,365.6 478.2,365.6" fill="rgb(0,176,0)"/>
<polygon points="484.2,359.6 490.2,359.6 490.2,365.6 484.2,365.6" fill="rgb(48,0,0)"/>
<polygon points="490.2,359.6 496.2,359.6 496.2,365.6 490.2,365.6" fill="rgb(255,0,0)"/>
<polygon points="496.2,359.6 502.2,359.6 502.2,365.6 496.2,365.6" fill="rgb(182,0,0)"/>
<polygon points="502.2,359.6 508.2,359.6 508.2,365.6 502.2,365.6" fill="rgb(48,0,0)"/>
<polygon points="508.2,359.6 514.2,359.6 514.2,365.6 508.2,365.6" fill="rgb(0,66,0)"/>
<polygon points="192.2,365.6 200.2,365.6 200.2,371.6 192.2,371.6" fill="rgb(127,230,0)"/><text xml:space="preserve" x="196.2" y="371.433" font-family="Calibri" font-size="7.5" fill="rgb(0,0,0)" text-anchor="middle">2</text>
<polygon points="200.2,365.6 208.2,365.6 208.2,371.6 200.2,371.6" fill="rgb(205,0,0)"/><text xml:space="preserve" x="204.2" y="371.433" font-family="Calibri" font-size="7.5" fill="rgb(255,255,255)" text-anchor="middle">5</text>
<polygon points="208.2,365.6 216.2,365.6 216.2,371.6 208.2,371.6" fill="rgb(127,230,0)"/><text xml:space="preserve" x="212.2" y="371.433" font-family="Calibri" font-size="7.5" fill="rgb(0,0,0)" text-anchor="middle">2</text>
<polygon points="216.2,365.6 224.2,365.6 224.2,371.6 216.2,371.6" fill="rgb(255,255,0)"/><text xml:space="preserve" x="220.2" y="371.433" font-family="Calibri" font-size="7.5" fill="rgb(0,0,0)" text-anchor="middle">3</text>
<polygon points="224.2,365.6 232.2,365.6 232.2,371.6 224.2,371.6" fill="rgb(255,255,0)"/><text xml:space="preserve" x="228.2" y="371.433" font-family="Calibri" font-size="7.5" fill="rgb(0,0,0)" text-anchor="middle">3</text>
<polygon points="242.2,365.6 248.2,365.6 248.2,371.6 242.2,371.6" fill="rgb(0,5,0)"/>
<polygon points="248.2,365.6 254.2,365.6 254.2,371.6 248.2,371.6" fill="rgb(0,17,0)"/>
<polygon points="254.2,365.6 260.2,365.6 260.2,371.6 254.2,371.6" fill="rgb(0,38,0)"/>
<polygon points="260.2,365.6 266.2,365.6 266.2,371.6 260.2,371.6" fill="rgb(78,0,0)"/>
<polygon points="266.2,365.6 272.2,365.6 272.2,371.6 266.2,371.6" fill="rgb(10,0,0)"/>
<polygon points="272.2,365.6 278.2,365.6 278.2,371.6 272.2,371.6" fill="rgb(0,20,0)"/>
<polygon points="278.2,365.6 284.2,365.6 284.2,371.6 278.2,371.6" fill="rgb(0,6,0)"/>
<polygon points="284.2,365.6 290.2,365.6 290.2,371.6 284.2,371.6" fill="rgb(0,217,0)"/>
<polygon points="290.2,365.6 296.2,365.6 296.2,371.6 290.2,371.6" fill="rgb(0,39,0)"/>
<polygon points="296.2,365.6 302.2,365.6 302.2,371.6 296.2,371.6" fill="rgb(96,0,0)"/>
<polygon points="302.2,365.6 308.2,365.6 308.2,371.6 302.2,371.6" fill="rgb(149,0,0)"/>
<polygon points="308.2,365.6 314.2,365.6 314.2,371.6 308.2,371.6" fill="rgb(116,0,0)"/>
<polygon points="314.2,365.6 320.2,365.6 320.2,371.6 314.2,371.6" fill="rgb(0,6,0)"/>
<polygon points="320.2,365.6 326.2,365.6 326.2,371.6 320.2,371.6" fill="rgb(0,97,0)"/>
<polygon points="336.2,365.6 342.2,365.6 342.2,371.6 336.2,371.6" fill="rgb(0,1,0)"/>
<polygon points="342.2,365.6 348.2,365.6 348.2,371.6 342.2,371.6" fill="rgb(0,38,0)"/>
<polygon points="348.2,365.6 354.2,365.6 354.2,371.6 348.2,371.6" fill="rgb(35,0,0)"/>
<polygon points="354.2,365.6 360.2,365.6 360.2,371.6 354.2,371.6" fill="rgb(4,0,0)"/>
<polygon points="360.2,365.6 366.2,365.6 366.2,371.6 360.2,371.6" fill="rgb(29,0,0)"/>
<polygon points="366.2,365.6 372.2,365.6 372.2,371.6 366.2,371.6" fill="rgb(0,9,0)"/>
<polygon points="372.2,365.6 378.2,365.6 378.2,371.6 372.2,371.6" fill="rgb(0,19,0)"/>
<polygon points="378.2,365.6 384.2,365.6 384.2,371.6 378.2,371.6" fill="rgb(74,0,0)"/>
<polygon points="384.2,365.6 390.2,365.6 390.2,371.6 384.2,371.6" fill="rgb(78,0,0)"/>
<polygon points="390.2,365.6 396.2,365.6 396.2,371.6 390.2,371.6" fill="rgb(0,55,0)"/>
<polygon points="396.2,365.6 402.2,365.6 402.2,371.6 396.2,371.6" fill="rgb(0,47,0)"/>
<polygon points="402.2,365.6 408.2,365.6 408.2,371.6 402.2,371.6" fill="rgb(14,0,0)"/>
<polygon points="408.2,365.6 414.2,365.6 414.2,371.6 408.2,371.6" fill="rgb(0,8,0)"/>
<polygon points="414.2,365.6 420.2,365.6 420.2,371.6 414.2,371.6" fill="rgb(0,55,0)"/>
<polygon points="430.2,365.6 436.2,365.6 436.2,371.6 430.2,371.6" fill="rgb(0,68,0)"/>
<polygon points="436.2,365.6 442.2,365.6 442.2,371.6 436.2,371.6" fill="rgb(0,38,0)"/>
<polygon points="442.2,365.6 448.2,365.6 448.2,371.6 442.2,371.6" fill="rgb(0,19,0)"/>
<polygon points="448.2,365.6 454.2,365.6 454.2,371.6 448.2,371.6" fill="rgb(99,0,0)"/>
<polygon points="454.2,365.6 460.2,365.6 460.2,371.6 454.2,371.6" fill="rgb(49,0,0)"/>
<polygon points="460.2,365.6 466.2,365.6 466.2,371.6 460.2,371.6" fill="rgb(19,0,0)"/>
<polygon points="466.2,365.6 472.2,365.6 472.2,371.6 466.2,371.6" fill="rgb(0,42,0)"/>
<polygon points="472.2,365.6 478.2,365.6 478.2,371.6 472.2,371.6" fill="rgb(0,181,0)"/>
<polygon points="478.2,365.6 484.2,365.6 484.2,371.6 478.2,371.6" fill="rgb(0,145,0)"/>
<polygon points="484.2,365.6 490.2,365.6 490.2,371.6 484.2,371.6" fill="rgb(106,0,0)"/>
<polygon points="490.2,365.6 496.2,365.6 496.2,371.6 490.2,371.6" fill="rgb(248,0,0)"/>
<polygon points="496.2,365.6 502.2,365.6 502.2,371.6 496.2,371.6" fill="rgb(195,0,0)"/>
<polygon points="502.2,365.6 508.2,365.6 508.2,371.6 502.2,371.6" fill="rgb(21,0,0)"/>
<polygon points="508.2,365.6 514.2,365.6 514.2,371.6 508.2,371.6" fill="rgb(0,245,0)"/>
<polygon points="192.2,269.6 232.2,269.6 232.2,371.6 192.2,371.6" fill="none" stroke="black" stroke-width="1"/>
<polygon points="242.2,269.6 326.2,269.6 326.2,371.6 242.2,371.6" fill="none" stroke="black" stroke-width="1"/>
<polygon points="336.2,269.6 420.2,269.6 420.2,371.6 336.2,371.6" fill="none" stroke="black" stroke-width="1"/>
<polygon points="430.2,269.6 514.2,269.6 514.2,371.6 430.2,371.6" fill="none" stroke="black" stroke-width="1"/>
<text xml:space="preserve" x="272.1" y="404.6" font-family="Calibri" font-size="8" text-anchor="middle">ClusterAssignment</text>
<polygon points="212.1,411.6 232.1,411.6 232.1,431.6 212.1,431.6" fill="rgb(0,205,0)"/><polygon points="212.1,411.6 232.1,411.6 232.1,431.6 212.1,431.6" fill="none" stroke="black" stroke-width="1"/><text xml:space="preserve" x="222.1" y="424.433" font-family="Calibri" font-size="7.5" fill="rgb(255,255,255)" text-anchor="middle">1.0</text>
<polygon points="232.1,411.6 252.1,411.6 252.1,431.6 232.1,431.6" fill="rgb(102,225,0)"/><polygon points="232.1,411.6 252.1,411.6 252.1,431.6 232.1,431.6" fill="none" stroke="black" stroke-width="1"/><text xml:space="preserve" x="242.1" y="424.433" font-family="Calibri" font-size="7.5" fill="rgb(0,0,0)" text-anchor="middle">1.8</text>
<polygon points="252.1,411.6 272.1,411.6 272.1,431.6 252.1,431.6" fill="rgb(204,245,0)"/><polygon points="252.1,411.6 272.1,411.6 272.1,431.6 252.1,431.6" fill="none" stroke="black" stroke-width="1"/><text xml:space="preserve" x="262.1" y="424.433" font-family="Calibri" font-size="7.5" fill="rgb(0,0,0)" text-anchor="middle">2.6</text>
<polygon points="272.1,411.6 292.1,411.6 292.1,431.6 272.1,431.6" fill="rgb(245,204,0)"/><polygon points="272.1,411.6 292.1,411.6 292.1,431.6 272.1,431.6" fill="none" stroke="black" stroke-width="1"/><text xml:space="preserve" x="282.1" y="424.433" font-family="Calibri" font-size="7.5" fill="rgb(0,0,0)" text-anchor="middle">3.4</text>
<polygon points="292.1,411.6 312.1,411.6 312.1,431.6 292.1,431.6" fill="rgb(225,101,0)"/><polygon points="292.1,411.6 312.1,411.6 312.1,431.6 292.1,431.6" fill="none" stroke="black" stroke-width="1"/><text xml:space="preserve" x="302.1" y="424.433" font-family="Calibri" font-size="7.5" fill="rgb(255,255,255)" text-anchor="middle">4.2</text>
<polygon points="312.1,411.6 332.1,411.6 332.1,431.6 312.1,431.6" fill="rgb(205,0,0)"/><polygon points="312.1,411.6 332.1,411.6 332.1,431.6 312.1,431.6" fill="none" stroke="black" stroke-width="1"/><text xml:space="preserve" x="322.1" y="424.433" font-family="Calibri" font-size="7.5" fill="rgb(255,255,255)" text-anchor="middle">5.0</text>
<text xml:space="preserve" x="272.1" y="464.6" font-family="Calibri" font-size="8" text-anchor="middle">Activity</text>
<polygon points="212.1,471.6 232.1,471.6 232.1,491.6 212.1,491.6" fill="rgb(0,255,0)"/><polygon points="212.1,471.6 232.1,471.6 232.1,491.6 212.1,491.6" fill="none" stroke="black" stroke-width="1"/><text xml:space="preserve" x="222.1" y="484.433" font-family="Calibri" font-size="7.5" fill="rgb(0,0,0)" text-anchor="middle">-2.0</text>
<polygon points="232.1,471.6 252.1,471.6 252.1,491.6 232.1,491.6" fill="rgb(0,153,0)"/><polygon points="232.1,471.6 252.1,471.6 252.1,491.6 232.1,491.6" fill="none" stroke="black" stroke-width="1"/><text xml:space="preserve" x="242.1" y="484.433" font-family="Calibri" font-size="7.5" fill="rgb(255,255,255)" text-anchor="middle">-1.2</text>
<polygon points="252.1,471.6 272.1,471.6 272.1,491.6 252.1,491.6" fill="rgb(0,50,0)"/><polygon points="252.1,471.6 272.1,471.6 272.1,491.6 252.1,491.6" fill="none" stroke="black" stroke-width="1"/><text xml:space="preserve" x="262.1" y="484.433" font-family="Calibri" font-size="7.5" fill="rgb(255,255,255)" text-anchor="middle">-0.4</text>
<polygon points="272.1,471.6 292.1,471.6 292.1,491.6 272.1,491.6" fill="rgb(51,0,0)"/><polygon points="272.1,471.6 292.1,471.6 292.1,491.6 272.1,491.6" fill="none" stroke="black" stroke-width="1"/><text xml:space="preserve" x="282.1" y="484.433" font-family="Calibri" font-size="7.5" fill="rgb(255,255,255)" text-anchor="middle">0.4</text>
<polygon points="292.1,471.6 312.1,471.6 312.1,491.6 292.1,491.6" fill="rgb(153,0,0)"/><polygon points="292.1,471.6 312.1,471.6 312.1,491.6 292.1,491.6" fill="none" stroke="black" stroke-width="1"/><text xml:space="preserve" x="302.1" y="484.433" font-family="Calibri" font-size="7.5" fill="rgb(255,255,255)" text-anchor="middle">1.2</text>
<polygon points="312.1,471.6 332.1,471.6 332.1,491.6 312.1,491.6" fill="rgb(255,0,0)"/><polygon points="312.1,471.6 332.1,471.6 332.1,491.6 312.1,491.6" fill="none" stroke="black" stroke-width="1"/><text xml:space="preserve" x="322.1" y="484.433" font-family="Calibri" font-size="7.5" fill="rgb(255,255,255)" text-anchor="middle">2.0</text>
</svg>
